<svg xmlns="http://www.w3.org/2000/svg" width="104" height="104" fill="none"><rect width="102" height="102" x="1" y="1" fill="#9E9E9E" rx="51"/><path fill="#fff" fill-rule="evenodd" d="M52 30.332c-5.982 0-10.833 4.85-10.833 10.833 0 5.983 4.85 10.834 10.834 10.834 5.983 0 10.833-4.85 10.833-10.834 0-5.983-4.85-10.833-10.833-10.833Zm0 4.333a6.5 6.5 0 1 1 0 13 6.5 6.5 0 0 1 0-13Zm15.157 32.03c-.246-5.765-4.997-10.363-10.823-10.363h-8.667l-.47.01c-5.765.246-10.363 4.998-10.363 10.823V71.5l.015.252a2.167 2.167 0 0 0 4.318-.252v-4.334l.011-.382a6.5 6.5 0 0 1 6.49-6.118h8.666l.382.011a6.5 6.5 0 0 1 6.118 6.49v4.333l.015.252a2.167 2.167 0 0 0 4.318-.252v-4.334l-.01-.47Z" clip-rule="evenodd"/><rect width="102" height="102" x="1" y="1" stroke="#fff" stroke-width="2" rx="51"/></svg>