<svg width="1147" height="530" fill="none" xmlns="http://www.w3.org/2000/svg">
  <path d="M341.504 503.885c-82.402-2.343-79.002-8.212-157.004-9.885l21.001-26.924c243.673-1.533 800.999 20.492 773.519 22.169-116.503 7.111-136.504 9.202-195.505 14.64-105.881 9.757-46.001 11.293-184.504 23.423-138.503 12.13-154.505-20.495-257.507-23.423Z" fill="#EFE3D9"/>
  <g clip-path="url(#a)">
    <path opacity=".1" d="M984.486 430.489H184.047c2.062-219.266 180.461-396.384 400.221-396.384s398.159 177.118 400.218 396.384Z" fill="#F57C1F"/>
    <path d="m474.43 385.799-33.9-10.835-33.877-10.908-67.723-21.918-67.671-22.068-33.815-11.091-33.798-11.161 33.9 10.835 33.878 10.908 67.722 21.918 67.671 22.072 33.816 11.091 33.797 11.157Zm100.493 28.39-29.079-22.508-29.039-22.563-58.005-45.213-57.906-45.342-28.918-22.716-28.874-22.776 29.083 22.508 29.039 22.563 58.005 45.214 57.906 45.345 28.918 22.717 28.87 22.771Zm-15.34-32.207-23.571-37.393-23.504-37.434-46.918-74.93-46.782-75.014-23.339-37.536-23.281-37.577 23.57 37.394 23.504 37.433 46.918 74.93 46.778 75.014 23.344 37.54 23.281 37.573Zm24.685 39.507-9.655-44.609-9.582-44.624-19.062-89.266-18.9-89.302-9.392-44.665-9.322-44.678 9.656 44.605 9.582 44.624 19.058 89.27 18.9 89.302 9.395 44.664 9.322 44.679Zm7.054-50.202L597.238 328l5.981-43.276 12.08-86.537 12.242-86.515 6.175-43.25 6.249-43.24-5.912 43.287-5.981 43.276-12.084 86.537-12.241 86.515-6.176 43.251-6.249 43.239Z" fill="#fff"/>
    <path d="M996 429H184v65h812v-65Z" fill="#FFF3E9"/>
    <path d="m586.004 418.222 20.424-38.775 20.49-38.741 41.079-77.428 41.222-77.351 20.658-38.65 20.728-38.616-20.428 38.774-20.486 38.741-41.079 77.428-41.222 77.355-20.662 38.65-20.724 38.613Z" fill="#fff"/>
    <path d="M996 461H184v8h812v-8Z" fill="#EFE3D9"/>
    <path d="m631.078 379.341 31.211-28.331 31.263-28.277 62.594-56.47 62.704-56.352 31.391-28.134 31.438-28.075-31.211 28.328-31.259 28.281-62.598 56.469-62.704 56.348-31.391 28.134-31.438 28.079Zm-40.162 39.46 36.643-14.985 36.669-14.918 73.378-29.735 73.444-29.588 36.738-14.739 36.771-14.669-36.643 14.984-36.669 14.922-73.377 29.735-73.444 29.581-36.742 14.742-36.768 14.67Z" fill="#fff"/>
    <path d="M727.969 295.079c0 7.259-5.883 13.142-13.143 13.142a13.1 13.1 0 0 1-9.34-3.905 13.083 13.083 0 0 1-3.795-9.237c0-7.253 5.883-13.135 13.135-13.135 1.531 0 3 .264 4.366.743 5.117 1.795 8.777 6.67 8.777 12.392Z" fill="#DF941E"/>
    <path d="M722.976 291.91c0 7.26-5.883 13.142-13.135 13.142a13.13 13.13 0 0 1-4.359-.736 13.082 13.082 0 0 1-3.794-9.237c0-7.253 5.882-13.135 13.134-13.135 1.532 0 3 .264 4.367.743a13.082 13.082 0 0 1 3.787 9.223Z" fill="#F2F2F2"/>
    <path d="M712.486 326.854h4.685m-4.685 6.958h4.685m-4.685 6.964h4.685m-4.685 6.959h4.685" stroke="#DF941E" stroke-width="2.03" stroke-linecap="round" stroke-linejoin="round"/>
    <g filter="url(#b)" fill="#222">
      <path d="M390.342 335h54.63v-41.53h26.197v-47.281h-26.197V104.987h-61.019L283 249.384v44.086h107.342V335Zm-49.837-88.811 53.671-81.143v81.143h-53.671Zm151.033-30.988c0 69.004 23.321 118.841 89.771 118.841s89.772-49.837 89.772-118.841C671.081 146.836 647.759 97 581.309 97s-89.771 49.836-89.771 118.201Zm125.871 0c0 37.058-3.833 67.727-36.1 67.727s-36.1-30.669-36.1-67.727c0-35.78 3.833-67.087 36.1-67.087s36.1 31.307 36.1 67.087ZM802.174 335h54.629v-41.53H883v-47.281h-26.197V104.987h-61.019L694.831 249.384v44.086h107.343V335Zm-49.838-88.811 53.671-81.143v81.143h-53.671Z"/>
    </g>
    <path d="M478.415 260.399s-12.483 8.289-27.251 2.41c-14.773-5.879-12.663-23.665-4.07-30.449 8.593-6.783-2.761-19.142 4.018-30.145 4.125-6.692 14.67-11.358 13.769-22.335-.905-10.978-5.414-23.336.451-33.889 5.868-10.552 20.252-7.955 25.728-6.563 3.161.806 10.772.871 11.076 9.607.212 6.048-2.813 10.846-2.813 16.776s9.879 15.728 7.164 27.885c-2.714 12.16-15.288 58.711-28.072 66.699v.004Z" fill="#621317"/>
    <path d="M519.469 155.35c4.893 2.322 6.996 8.227 4.674 13.12l-18.926 39.87c-2.323 4.893-8.227 6.996-13.121 4.673-4.893-2.322-6.996-8.226-4.673-13.12l20.735-41.034c2.322-4.894 9.135-4.498 11.314-3.509h-.003Z" fill="#E84354"/>
    <path d="M513.023 222.709c-.487-3.333 2.172-6.545.334-12.878-1.839-6.333-4.264-7.864-4.824-12.816-.557-4.949-14.41-11.227-14.41-11.227l-13.432 26.226 23.985 16.127 8.347-5.436v.004Z" fill="#621317"/>
    <path d="m493.379 194.71-3.86 7.505-11.102-1.882s-2.433-8.831-1.579-9.524c.846-.685 1.531-2.534 2.513-6.076.974-3.542.901-12.662.901-12.662s1.875-.033 4.139.337c3.494.564 7.911 2.087 7.772 6.171-.04 1.297-.022 2.7.041 4.114.241 5.897 1.175 12.017 1.175 12.017Zm7.603 149.603s-4.717 36.116-4.816 50.719c-.099 14.607-.279 37.749.333 43.888.575 5.772.183 9.431 1.352 12.798.714 2.058 1.483 3.227 1.769 3.868.824 1.846-6.549-1.011-9.124-2.586-2.579-1.575-.543-3.766-.48-7.886.088-6.205-8.634-49.485-9.157-55.994-.524-6.508-.403-15.522 1.787-20.742 2.19-5.219 3.095-7.608 2.769-11.812-.326-4.205-3.15-13.414-3.15-13.414l18.717 1.161Z" fill="#F1876E"/>
    <path d="M482.265 341.043s-8.747 42.291-9.996 57.162c-1.253 14.87.399 30.324 1.311 36.503.63 4.274 1.667 13.252 3.008 18.863.586 2.462 1.893 4.685 3.205 6.736 1.109 1.74-6.345-4.186-8.846-5.992-2.502-1.806-2.681-4.894-3.275-11.069-.604-6.311-10.505-45.598-10.527-52.265-.026-6.673.813-15.845 3.451-20.987 2.64-5.143 3.75-7.505 3.75-11.813 0-4.307-2.479-16.534-2.479-16.534l20.398-.604Z" fill="#F1876E"/>
    <path d="M485.369 159.658c-6.234 8.801-5.813 13.951-5.667 15.977-4.245-2.385-8.131-6.066-10.464-10.641-5.366-10.519-2.788-20.171 4.564-23.921 4.959-2.528 10.823-1.722 15.757 2.307 0 0 .443 9.729-4.19 16.274v.004Zm6.837 23.038c-3.37-1.187-6.868-3.578-9.358-6.454.227-.809.582-2.12 1.545-3.831 3.495.564 7.912 2.088 7.773 6.172a55.908 55.908 0 0 0 .04 4.113Z" fill="#621317"/>
    <path d="M496.716 176.994c-3.846 2.637-11.512 1.732-17.014-1.359-.146-2.029-.567-7.179 5.667-15.977 4.63-6.549 4.19-16.274 4.19-16.274 2.377 1.934 4.077 5.282 5.82 8.703 5.366 10.512 4.674 22.625 1.341 24.91l-.004-.003Z" fill="#F1876E"/>
    <path d="M508.324 238.891c-4.704 10.761-3.425 21.197-2.945 28.489.934 14.194 0 36.786 0 57.576 0 5.82-2.004 18.303-2.813 25.548-11.89 5.351-19.849-4.293-42.559-2.883 4.622-23.434-5.073-33.818-3.872-51.953 1.209-18.134 11.014-23.881 14.172-31.002 2.307-5.205 4.066-19.797 4.066-19.797l-16.868-38.353 19.333-15.706s5.626 5.417 10.384 6.094c4.751.674 6.161-2.197 6.161-2.197s5.831 8.582 12.018 15.808c4.684 5.48 8.563 8.494 8.904 11.421.337 2.802-1.286 6.194-5.981 16.955Z" fill="#E84354"/>
    <path d="M499.865 254.187c-4.01 3.641-10.27 3.337-13.911-.674l-29.662-32.68c-3.641-4.01-3.337-10.27.674-13.911s10.271-3.337 13.912.674l29.661 32.679c3.641 4.011 3.337 10.271-.674 13.912Z" fill="#E84354"/>
    <path d="m510.128 189.865-7.417 59.593c-.784 4.916-5.44 8.296-10.348 7.52-4.915-.777-8.296-5.432-7.52-10.347l13.033-58.305c-.07.572 2.615 1.381 5.996 1.799 3.384.424 6.187.307 6.256-.26Zm4.668-16.725c-4.912-.776-8.296-5.436-7.516-10.347l13.633-58.305 10.908 1.44-6.677 59.692c-.777 4.912-5.436 8.297-10.348 7.516v.004Z" fill="#E84354"/>
    <path d="M512.4 167.107a6.534 6.534 0 1 0-12.719-3.003 6.534 6.534 0 0 0 12.719 3.003Z" fill="#84C3BD"/>
    <path d="M507.828 166.364h-3.535V181.4h3.535v-15.036Z" fill="#84C3BD"/>
    <path d="M510.132 189.865c-.037.271-.663.439-1.667.483-.212.011-.45.022-.699.022-1.066.022-2.425-.069-3.894-.249a29.183 29.183 0 0 1-3.681-.674c-.132-.036-.249-.058-.366-.106-1.231-.33-1.989-.711-1.953-1.018.011-.022.011-.059.037-.07.154-.26.934-.414 2.08-.439h.202c1.088-.022 2.461.058 3.941.249 1.74.212 3.289.531 4.377.864l.546.191c.7.26 1.099.52 1.077.743v.004Z" fill="#B82B3B"/>
    <path d="M497.906 188.249a.252.252 0 0 0-.029.077l.015-.077h.014Z" fill="#E84354"/>
    <path d="M531.821 105.928c-.026.26-.572.44-1.451.516-1.015.088-2.494.041-4.121-.164a23.292 23.292 0 0 1-3.318-.63c-1.279-.352-2.088-.755-2.055-1.085a.933.933 0 0 1 .022-.076c.172-.315 1.201-.488 2.67-.473.846.007 1.828.07 2.876.198 2.01.245 3.75.674 4.67 1.099.461.212.721.425.699.619l.008-.004Z" fill="#B82B3B"/>
    <path d="M551.106 96.961s6.849-4.428 6.095-5.736c-.799-1.38-7.029 3.901-7.029 3.901l.934 1.835Z" fill="#F1876E"/>
    <mask id="c" style="mask-type:luminance" maskUnits="userSpaceOnUse" x="499" y="159" width="14" height="14">
      <path d="M512.4 167.106a6.534 6.534 0 1 0-12.72-3.001 6.534 6.534 0 0 0 12.72 3.001Z" fill="#fff"/>
    </mask>
    <g mask="url(#c)" stroke="#357093" stroke-width=".47" stroke-linecap="round" stroke-linejoin="round">
      <path d="m509.05 153.734-14.714 18.245m15.614-17.003-14.714 18.244m15.616-16.999-14.713 18.245m15.618-16.999-14.714 18.244m15.614-17.003-14.714 18.245m15.616-16.999-14.713 18.244m15.618-17.003L499.75 179.44m15.614-16.999-14.714 18.244m18.351-10.765-17.823-15.219m16.556 16.083-17.824-15.219m16.556 16.088-17.827-15.219m16.555 16.087-17.823-15.219m16.556 16.083L496.1 158.166m16.557 16.087-17.823-15.219m16.556 16.087-17.824-15.219m16.556 16.084-17.827-15.219"/>
    </g>
    <path d="M552.339 95.921c-2.238 2.912-5.692 1.524-13.377 3.564-3.589.956-6.139 3.439-7.842 5.824a24.4 24.4 0 0 0-.747 1.132c-1.015.088-2.495.04-4.121-.165a22.988 22.988 0 0 1-3.318-.63c.197-.517.417-1.066.637-1.634 1.113-2.824 2.41-6.062 2.952-7.237 1.037-2.246 3.432-4.876 5.447-6.125 2.011-1.249 8.084-4.992 9.571-5.512 1.923-.674 2.535 1.27.095 2.615-1.901 1.051-5.527 4.34-3.633 5.941 1.901 1.6 10.212 1.011 12.248-.59 2.033-1.608 3.864-6.72 5.344-6.164 1.476.557-1.022 6.07-3.26 8.989l.004-.008Z" fill="#F1876E"/>
    <path d="M490.015 445.11c-2.659 1.33-3.318 4.802-2.534 7.249.784 2.446 1.15 10.472 1.15 10.472h1.879s.59-6.461 1.275-7.047c.685-.587 2.421 5.223 3.743 6.105 1.319.879 3.634.942 3.634.942h6.08c1.223 0 3.721 0 3.721-.784s-6.9-2.729-8.223-4.71c-1.274-1.912-2.172-3.568-2.172-3.568s-7.758 2.648-8.553-8.663m-22.198-.377c-2.718 1.359-3.389 4.908-2.59 7.406.802 2.498 1.176 10.699 1.176 10.699h1.923s.6-6.6 1.3-7.197c.7-.601 2.476 5.337 3.824 6.234 1.348.901 3.71.963 3.71.963h6.213c1.249 0 3.802 0 3.802-.802s-7.048-2.784-8.399-4.813a53.202 53.202 0 0 1-2.22-3.641s-7.926 2.703-8.736-8.849" fill="#EB5C2B"/>
    <path d="m510.748 184.612-2.234 4.319-.743 1.443c-1.066.022-2.425-.07-3.894-.249a29.15 29.15 0 0 1-3.681-.674c-.132-.037-.249-.059-.366-.107.095-.52.142-1.029.164-1.527.286-5.37-2.26-9.857-2.26-9.857l13.014 6.648v.004Z" fill="#F1876E"/>
    <path d="M486.474 157.321c-1.926 3.725-4.19 9.036-4.941 16.742-.755 7.707.729 15.146.377 19.867-.351 4.722-2.937 10.853-1.241 17.084 0 0-5.542-6.582-4.334-12.26 1.205-5.677.854-2.161 1.257-7.838.403-5.677-2.37-7.285-2.289-10.351.08-3.066 1.032-17.549 4.651-20.204 3.619-2.656 6.527-3.04 6.527-3.04h-.007Zm-17.933-8.791c-.67.718-1.26 1.575-1.788 2.44-.527.871-.996 1.78-1.41 2.714a30.574 30.574 0 0 0-1.886 5.823c-.44 2-.711 4.037-.828 6.084-.132 2.048-.037 4.099-.062 6.169-.022 2.065-.125 4.131-.367 6.186-.245 2.051-.615 4.099-1.249 6.077a20.385 20.385 0 0 1-2.695 5.582c-1.176 1.714-2.634 3.201-4.085 4.659-1.45 1.458-2.893 2.934-4.076 4.608a20.526 20.526 0 0 0-2.733 5.479c-1.282 3.916-1.505 8.084-1.498 12.19 0 2.058.084 4.117.128 6.179.019 2.062-.271 4.135-.919 6.095-.326.978-.74 1.927-1.216 2.842a29.062 29.062 0 0 1-1.597 2.648c-1.128 1.718-2.443 3.337-3.26 5.238.806-1.904 2.113-3.534 3.231-5.256a28.94 28.94 0 0 0 1.578-2.652c.469-.915.876-1.864 1.198-2.838.637-1.956.912-4.022.883-6.077-.051-2.058-.147-4.117-.161-6.179-.03-4.11.168-8.296 1.443-12.249a20.72 20.72 0 0 1 2.732-5.552c1.191-1.703 2.638-3.191 4.081-4.659 1.447-1.466 2.879-2.945 4.029-4.641a20.053 20.053 0 0 0 2.63-5.516c.615-1.953.97-3.982 1.205-6.022.231-2.04.322-4.095.333-6.15.015-2.051-.091-4.12.029-6.19.107-2.066.367-4.128.803-6.157a31.175 31.175 0 0 1 1.882-5.923c.418-.952.887-1.882 1.422-2.776.542-.894 1.117-1.751 1.849-2.546l.367.363.007.007Z" fill="#621317"/>
    <path d="M468.472 143.992c-.315.179-.649.454-.949.725-.3.282-.582.586-.853.897-.543.63-1.008 1.326-1.458 2.033a27.197 27.197 0 0 0-2.176 4.538c-.161.388-.282.791-.425 1.191-.139.395-.278.794-.392 1.201-.242.81-.498 1.612-.677 2.432a30.947 30.947 0 0 0-.693 4.996c-.209 3.37.026 6.751.187 10.135.077 1.692.136 3.392.055 5.091-.084 1.696-.3 3.407-.872 5.026a9.967 9.967 0 0 1-2.816 4.23 63.185 63.185 0 0 0-3.619 3.553c-2.312 2.462-4.377 5.179-5.905 8.198-1.546 3.007-2.491 6.307-2.908 9.662-.407 3.362-.304 6.769.084 10.131-.41-3.359-.535-6.769-.147-10.138.396-3.366 1.323-6.681 2.858-9.714 1.512-3.044 3.574-5.787 5.878-8.274a64.226 64.226 0 0 1 3.608-3.586 9.716 9.716 0 0 0 2.729-4.15c.55-1.586.758-3.275.828-4.956.07-1.685 0-3.373-.084-5.066-.18-3.377-.44-6.768-.246-10.171.096-1.7.304-3.396.671-5.062.175-.835.428-1.652.666-2.465.114-.41.249-.813.389-1.216.142-.403.26-.81.421-1.205a27.625 27.625 0 0 1 2.175-4.63c.455-.725.927-1.443 1.484-2.106.568-.659 1.146-1.278 1.952-1.766l.231.462.004.004Z" fill="#621317"/>
    <path d="M460.059 205.988s8.212-4.219 27.471 20.801" stroke="#621317" stroke-width="1.41" stroke-linecap="round" stroke-linejoin="round"/>
    <path d="M509.744 176.455c2.129.231 1.279 2.509 1.279 2.509 2.49.564 1.154 2.7 1.154 2.7 2.091.219 1.337 1.966.538 2.534-.813.579-7.355 2.711-9.143 2.341-1.97-.411-1.369-2.169-1.369-2.169-2.048-.333-1.381-2.326-1.381-2.326-2.019-.622-1.348-2.684-1.348-2.684s-1.469.099-1.74-1.4c-.267-1.498 2.08-2.021 3.227-2.263.89-.183 3.915-.579 6.659-1.275 2.593-.659 2.128 2.037 2.128 2.037l-.004-.004Z" fill="#F1876E"/>
    <path d="M503.174 178.561s4.084-.923 6.571-2.106m-6.503 5.146s5.249-1.45 7.78-2.633m-6.545 5.263s4.886-.967 7.695-2.564" stroke="#621317" stroke-width="1.02" stroke-linecap="round" stroke-linejoin="round"/>
    <path d="M475.592 238.514s10.732 19.262 20.97 14.83c10.237-4.432 9.014-28.419 9.014-28.419" stroke="#621317" stroke-width="1.43" stroke-linecap="round" stroke-linejoin="round"/>
    <path d="M495.752 197.681s-8.121 33.05-7.249 37.254c.872 4.202 2.099-6.875 2.099-6.875" stroke="#621317" stroke-width="1.43" stroke-linecap="round" stroke-linejoin="round"/>
    <path d="M1016.72 331.521H898.305c.808-10.395 1.404-17.509 1.404-17.509h115.601s.6 7.111 1.41 17.509Z" fill="#3B76C2"/>
    <path d="M1021.04 404.756c0 22.686-5.72 90.739-5.72 90.739H899.713S894 427.442 894 404.756c0-15.354 2.615-51.483 4.308-73.235h118.422c1.69 21.752 4.31 57.881 4.31 73.235Z" fill="#3B76C2"/>
    <path d="M918.737 323.579a3.018 3.018 0 1 0-5.874-1.386 3.018 3.018 0 0 0 5.874 1.386Zm16.662.001a3.017 3.017 0 1 0-5.875-1.388 3.017 3.017 0 0 0 5.875 1.388Zm16.664 0a3.018 3.018 0 1 0-5.874-1.387 3.018 3.018 0 0 0 5.874 1.387Zm16.662 0a3.017 3.017 0 1 0-5.872-1.387 3.017 3.017 0 0 0 5.872 1.387Zm16.667 0a3.018 3.018 0 1 0-5.876-1.385 3.018 3.018 0 0 0 5.876 1.385Zm16.668 0a3.026 3.026 0 0 0-2.248-3.63 3.019 3.019 0 0 0-1.387 5.874 3.025 3.025 0 0 0 3.635-2.244Z" fill="#84C3BD"/>
    <path d="M957.383 399.729c17.545 0 31.767-14.223 31.767-31.767 0-17.545-14.222-31.767-31.767-31.767s-31.768 14.222-31.768 31.767c0 17.544 14.223 31.767 31.768 31.767Z" stroke="#fff" stroke-width="1.62" stroke-miterlimit="10"/>
    <path d="M957.383 397.034c16.056 0 29.073-13.016 29.073-29.072 0-16.056-13.017-29.072-29.073-29.072s-29.072 13.016-29.072 29.072c0 16.056 13.016 29.072 29.072 29.072Z" stroke="#fff" stroke-width="1.62" stroke-miterlimit="10"/>
    <mask id="d" style="mask-type:luminance" maskUnits="userSpaceOnUse" x="928" y="338" width="59" height="60">
      <path d="M957.383 397.035c16.056 0 29.073-13.016 29.073-29.072 0-16.056-13.017-29.072-29.073-29.072s-29.072 13.016-29.072 29.072c0 16.056 13.016 29.072 29.072 29.072Z" fill="#fff"/>
    </mask>
    <g mask="url(#d)" stroke="#fff" stroke-width="1.62" stroke-miterlimit="10">
      <path d="m940.58 417.65 68.48-58.684m-72.841 53.597 68.481-58.684m-72.841 53.599 68.481-58.684m-72.836 53.596 68.48-58.683m-72.839 53.596 68.48-58.683m-72.842 53.595 68.48-58.683m-72.839 53.596 68.48-58.684m-72.84 53.6 68.481-58.684m-72.84 53.596 68.483-58.684m-67.094 34.768 61.222 66.223m-56.304-70.768 61.222 66.22m-56.3-70.768 61.222 66.22m-56.304-70.768 61.222 66.221m-56.304-70.769 61.222 66.221m-56.303-70.769 61.223 66.22m-56.303-70.768 61.223 66.221m-56.305-70.769 61.223 66.221m-56.303-70.769 61.223 66.224"/>
    </g>
    <path d="M957.383 397.034c16.056 0 29.073-13.016 29.073-29.072 0-16.056-13.017-29.072-29.073-29.072s-29.072 13.016-29.072 29.072c0 16.056 13.016 29.072 29.072 29.072Z" stroke="#fff" stroke-width="1.62" stroke-miterlimit="10"/>
    <path d="M957.382 488.35c22.749 0 41.19-18.441 41.19-41.189s-18.441-41.188-41.19-41.188c-22.748 0-41.189 18.44-41.189 41.188s18.441 41.189 41.189 41.189Z" stroke="#fff" stroke-width="1.43" stroke-miterlimit="10"/>
    <path d="M957.383 484.858c20.82 0 37.697-16.877 37.697-37.697 0-20.819-16.877-37.697-37.697-37.697-20.82 0-37.697 16.878-37.697 37.697 0 20.82 16.877 37.697 37.697 37.697Z" stroke="#fff" stroke-width="1.43" stroke-miterlimit="10"/>
    <mask id="e" style="mask-type:luminance" maskUnits="userSpaceOnUse" x="919" y="409" width="77" height="76">
      <path d="M957.381 484.858c20.82 0 37.697-16.877 37.697-37.697 0-20.819-16.877-37.697-37.697-37.697-20.82 0-37.697 16.878-37.697 37.697 0 20.82 16.877 37.697 37.697 37.697Z" fill="#fff"/>
    </mask>
    <g mask="url(#e)" stroke="#fff" stroke-width="1.43" stroke-miterlimit="10">
      <path d="m935.594 511.588 88.796-76.09m-94.447 69.496 88.787-76.091m-94.439 69.493 88.789-76.088m-94.443 69.493 88.793-76.088m-94.442 69.493 88.792-76.091m-94.446 69.496 88.793-76.09m-94.445 69.492 88.793-76.087m-94.446 69.493 88.794-76.088m-94.444 69.492 88.79-76.09m-86.991 45.082 79.38 85.863m-73.001-91.758 79.38 85.863m-73.003-91.762 79.38 85.863m-73.002-91.758 79.381 85.863m-73.004-91.758 79.381 85.863m-73.002-91.761 79.382 85.862m-73.003-91.758 79.383 85.863m-73.006-91.758 79.376 85.862m-72.997-91.761 79.377 85.863"/>
    </g>
    <path d="M957.383 484.858c20.82 0 37.697-16.877 37.697-37.697 0-20.819-16.877-37.697-37.697-37.697-20.82 0-37.697 16.878-37.697 37.697 0 20.82 16.877 37.697 37.697 37.697Z" stroke="#fff" stroke-width="1.43" stroke-miterlimit="10"/>
    <path d="m1030.33 316.487 31.68-16.738m-30.37 30.579 27.51-5.179m-26.08 23.162 35.25-1.427m-33.35 16.792 29.9 5.122m-31.8 19.411 44.66 12.031m-53.84-93.683L1039.26 292" stroke="#3B76C2" stroke-width="1.9" stroke-linecap="round" stroke-linejoin="round"/>
    <path d="M285.769 271.255a42.85 42.85 0 0 1-3.288 1.136 5.71 5.71 0 0 1-4.724 6.952 5.715 5.715 0 0 1-6.49-4.813c-.013-.089-.022-.177-.031-.263a45.153 45.153 0 0 1-5.095-.107l-3.808-.302c.345-1.075.65-2.179.91-3.296a44.318 44.318 0 0 0 17.605-1.016 43.86 43.86 0 0 0 6.744-2.371l.733-.325.004.004a44.52 44.52 0 0 0 1.717 2.731l-4.277 1.67Z" fill="#fff"/>
    <path d="m288.326 266.85-.734.324a43.81 43.81 0 0 1-6.743 2.371 44.272 44.272 0 0 1-17.605 1.016c.804-3.41 1.185-6.92.945-10.031-.003-.021-.002-.04-.005-.06l-2.578-31.869-.094-1.147-.266-3.288a2.167 2.167 0 0 1 .039-.633c.089-.446.311-.875.636-1.255.636-.762 1.672-1.337 2.869-1.514l7.64-1.13c2.077-.307 4.044.678 4.378 2.23l.157.718.243 1.125 7.301 33.755c.003.021.009.039.012.059.671 3.047 2.053 6.297 3.806 9.328l-.001.001Z" fill="#88B5F1"/>
    <path d="m308.828 319.837 2.314 15.64-49.865 7.378-2.314-15.64c-.754-5.093-1.778-11.117-2.402-17.375l49.533-7.329c1.217 6.172 1.979 12.233 2.732 17.326h.002Z" fill="#fff"/>
    <path d="m306.095 302.509-49.531 7.329c-1.047-10.49-.97-21.631 3.388-30.138.9-1.759 1.712-3.749 2.379-5.842l3.808.302c1.7.133 3.399.167 5.095.107.009.086.018.174.032.263a5.712 5.712 0 0 0 6.489 4.813 5.71 5.71 0 0 0 4.725-6.952 43.253 43.253 0 0 0 3.287-1.135l4.277-1.671a39.272 39.272 0 0 0 4.08 5.06c6.634 6.881 9.935 17.522 11.97 27.866l.001-.002Zm5.048 32.968 3.429 23.179-49.865 7.378-3.43-23.179 49.866-7.378Zm-33.939-111.768-8.007 1.185a.573.573 0 1 1-.168-1.136l7.933-1.174.242 1.125Zm-6.118 2.909a.574.574 0 0 1-.484.652l-8.998 1.331-.094-1.147 8.924-1.32a.576.576 0 0 1 .652.484Zm-9.167-4.338 7.157-1.059a.578.578 0 0 1 .652.484.576.576 0 0 1-.484.652l-7.961 1.178" fill="#88B5F1"/>
    <path d="M267.205 260.488a1.265 1.265 0 0 1-1.378-1.135l-2.575-26.608a1.265 1.265 0 0 1 1.135-1.378 1.264 1.264 0 0 1 1.378 1.135l2.575 26.608a1.265 1.265 0 0 1-1.135 1.378Z" fill="#ACD0FF"/>
    <path d="m265.582 344.782-.603.089a1.166 1.166 0 0 0-.982 1.324l2.346 15.855a1.165 1.165 0 0 0 1.323.982l.603-.09a1.164 1.164 0 0 0 .982-1.323l-2.346-15.855a1.165 1.165 0 0 0-1.323-.982Z" fill="#88B5F1"/>
    <path d="M260.048 306.133c-.778.023-1.499-.72-1.567-1.632-.748-9.69 1.018-18.91 4.625-26.85.34-.75 1.193-1.051 1.875-.699.684.354.968 1.2.648 1.907-3.418 7.562-5.084 16.368-4.324 25.645.072.866-.481 1.607-1.259 1.63l.002-.001Z" fill="#ACD0FF"/>
    <path d="M230.08 216.288c1.088-1.364 2.37-2.561 3.735-3.652.682-.549 1.4-1.053 2.131-1.537a28.2 28.2 0 0 1 2.279-1.323 21.888 21.888 0 0 1 4.95-1.85 22.01 22.01 0 0 1 5.256-.588c.883.006 1.764.076 2.636.202a19.64 19.64 0 0 1 2.58.542 22.095 22.095 0 0 1 4.841 2.013c1.527.849 2.945 1.876 4.274 2.99a35.418 35.418 0 0 1 3.712 3.637l-.079.072c-2.411-2.461-5.11-4.67-8.16-6.228a21.517 21.517 0 0 0-4.765-1.811 19.048 19.048 0 0 0-2.503-.446 18.495 18.495 0 0 0-2.534-.116c-1.69.04-3.372.3-4.996.758a30.5 30.5 0 0 0-4.74 1.783c-1.537.715-3.013 1.57-4.441 2.51a39.06 39.06 0 0 0-4.099 3.116l-.079-.072h.002Z" fill="#F9D6AF"/>
    <path d="M228.569 183.483c2.303-.726 4.743-.983 7.176-1.022 2.435.008 4.886.292 7.267.903a27.68 27.68 0 0 1 6.841 2.76 29.263 29.263 0 0 1 3.095 2.035c.247.185.503.36.739.558l.705.599.703.602.176.15.165.162.33.323.658.65.328.325.165.163.153.173 1.218 1.386c.208.228.39.474.575.72l.556.735.556.735c.186.244.341.509.512.763l1.001 1.54c.313.524.602 1.064.9 1.596.626 1.051 1.1 2.178 1.629 3.274l.194.413c.06.139.113.283.17.423l.336.847.665 1.696.561 1.73.279.864.14.43c.048.143.094.288.127.435l.448 1.758.223.878c.071.293.156.582.206.88l.34 1.776c.105.593.219 1.183.318 1.778-.2-.57-.385-1.142-.577-1.711l-.555-1.711-1.233-3.37c-.442-1.108-.906-2.206-1.363-3.303l-.764-1.611-.379-.805-.19-.403-.21-.392-.84-1.564-.208-.392a4.7 4.7 0 0 0-.218-.385l-.461-.755c-.309-.502-.61-1.01-.923-1.508l-1.005-1.45c-1.372-1.902-2.854-3.733-4.563-5.326a31.643 31.643 0 0 0-5.529-4.258 29.44 29.44 0 0 0-6.376-2.874 32.627 32.627 0 0 0-6.92-1.376c-2.361-.201-4.758-.189-7.14.152l-.001.004Z" fill="#F9E9DE"/>
    <path d="M270.593 217.398c.214-.458.478-.892.759-1.317.278-.426.584-.833.905-1.228a17.67 17.67 0 0 1 2.139-2.196 16.738 16.738 0 0 1 5.343-3.101 15.921 15.921 0 0 1 3.038-.709l.776-.079c.258-.023.518-.022.779-.032l.389-.01.389.013c.258.013.517.02.774.039 2.059.186 4.058.761 5.842 1.707-1.984-.383-3.94-.621-5.877-.585-.967.043-1.926.111-2.869.288-.238.035-.47.096-.704.142l-.351.075-.346.095c-.23.064-.466.112-.691.189l-.683.221a21.54 21.54 0 0 0-5.124 2.636 27.57 27.57 0 0 0-2.323 1.798 27.908 27.908 0 0 0-2.163 2.059l-.002-.005Zm.799-9.093c.175-1.792.513-3.563.942-5.312.43-1.75.964-3.475 1.607-5.166 1.293-3.372 3.047-6.609 5.4-9.42a26.207 26.207 0 0 1 3.931-3.855 19.351 19.351 0 0 1 4.802-2.748 22.32 22.32 0 0 1 2.638-.838l.673-.152c.224-.049.452-.086.677-.129.449-.093.907-.14 1.361-.201a22.097 22.097 0 0 1 5.441.071l-.004.143c-1.791.161-3.553.395-5.27.776-1.712.401-3.381.925-4.961 1.646a27.282 27.282 0 0 0-4.512 2.566 24.415 24.415 0 0 0-2.05 1.62 24.78 24.78 0 0 0-1.86 1.85 29.126 29.126 0 0 0-3.144 4.234 36.258 36.258 0 0 0-2.458 4.707 43.274 43.274 0 0 0-1.842 5.011c-.257.853-.49 1.716-.695 2.585a33.253 33.253 0 0 0-.53 2.626l-.142-.015-.004.001Z" fill="#F9D6AF"/>
    <path d="M248.809 180.331c.976-.173 1.961-.129 2.929.003.971.135 1.924.39 2.847.739.92.35 1.796.823 2.598 1.399.799.58 1.539 1.233 2.248 1.907a17.837 17.837 0 0 1 3.489 4.636 21.039 21.039 0 0 1 1.914 5.374l-.17.05c-.655-1.76-1.479-3.442-2.509-4.968a17.411 17.411 0 0 0-1.698-2.154c-.296-.347-.628-.658-.947-.979-.337-.305-.667-.612-1.023-.89a14.956 14.956 0 0 0-2.249-1.486 119.28 119.28 0 0 0-2.371-1.256c-1.598-.823-3.272-1.526-5.065-2.196l.009-.178-.002-.001Z" fill="#F9E9DE"/>
    <path d="M267.854 200.706a34.013 34.013 0 0 1-.024-2.747c.024-.916.075-1.832.15-2.748a41.91 41.91 0 0 1 .33-2.742 36.506 36.506 0 0 1 1.299-5.421c.309-.89.708-1.755 1.22-2.561a9.945 9.945 0 0 1 1.854-2.19c.722-.631 1.554-1.15 2.46-1.421l.07.124c-1.375 1.234-2.349 2.651-3.148 4.201-.393.775-.77 1.563-1.14 2.365a22.904 22.904 0 0 0-.97 2.486 35.411 35.411 0 0 0-.712 2.598 42.43 42.43 0 0 0-.554 2.652 50.777 50.777 0 0 0-.69 5.401l-.142.001-.003.002Zm-11.775 1.304c-1.599-2.293-3.742-4.188-6.128-5.587a18.818 18.818 0 0 0-3.773-1.705 20.17 20.17 0 0 0-4.033-.862c-1.371-.137-2.75-.116-4.118-.003l-1.024.119c-.169.021-.343.03-.511.06l-.509.085c-.339.054-.681.103-1.019.162l-1.013.207-.509.096c-.169.037-.335.084-.503.124l-1.008.252c-.674.166-1.33.392-2.004.571-.659.223-1.321.442-1.989.661-.656.243-1.312.488-1.985.711l-.046-.096c.602-.368 1.22-.715 1.838-1.063a67.661 67.661 0 0 1 1.921-.916c.329-.134.658-.268.99-.395l.497-.195.249-.097.253-.083 1.021-.322c.17-.052.34-.109.511-.157l.52-.13 1.044-.248c.352-.071.707-.117 1.06-.179.706-.131 1.426-.158 2.142-.22 1.435-.04 2.874.009 4.295.21 1.418.213 2.815.558 4.158 1.054a19.573 19.573 0 0 1 3.823 1.906 20.679 20.679 0 0 1 3.306 2.676c.996 1.006 1.909 2.096 2.633 3.313l-.092.054.003-.003Z" fill="#F9D6AF"/>
    <path d="M281.536 61.302c0 2.51-3.165 4.534-7.075 4.534-3.911 0-7.076-2.032-7.076-4.534 0-2.501 3.165-4.533 7.076-4.533 3.91 0 7.075 2.032 7.075 4.533Zm-23.234-3.627c0 2-2.534 3.627-5.651 3.627S247 59.674 247 57.675c0-2 2.534-3.627 5.651-3.627s5.651 1.627 5.651 3.627Z" fill="#F2F2F2"/>
    <path d="M279.84 61.301V34.376L256.58 25v32.675m0-24.166 23.26 9.642" stroke="#F2F2F2" stroke-width="3.83" stroke-miterlimit="10"/>
    <path d="M1021.67 218.574c5.35 0 9.68-3.098 9.68-6.921 0-3.822-4.33-6.921-9.68-6.921-5.34 0-9.67 3.099-9.67 6.921 0 3.823 4.33 6.921 9.67 6.921Z" fill="#F2F2F2"/>
    <path d="M1028.48 177.024v35.619" stroke="#F2F2F2" stroke-width="4.88" stroke-miterlimit="10"/>
    <path d="M1040.91 201.576a23.39 23.39 0 0 0 1.12-6.981c0-2.311-.42-4.598-1.44-6.433-1-1.846-2.55-3.181-4.4-4.014-1.84-.834-3.93-1.239-6.07-1.382l1.02-5.766c2.55.703 5.11 1.751 7.36 3.407 2.26 1.632 4.05 4.038 4.82 6.659.78 2.609.68 5.254.18 7.684a24.592 24.592 0 0 1-2.58 6.826h-.01Z" fill="#F2F2F2"/>
    <path d="M981.341 6.105h-16.11l-.888-4.162c-.109-.526-.608-.943-1.114-.943h-12.221c-.505 0-1.004.417-1.114.943l-.888 4.162h-17.34c-3.117 0-5.666 2.55-5.666 5.666v26.703c0 3.117 2.549 5.666 5.666 5.666h49.668c3.117 0 5.666-2.55 5.666-5.666V11.771c0-3.116-2.549-5.666-5.666-5.666h.007Z" fill="#fff" stroke="#F2F2F2" stroke-width="1.8" stroke-linecap="round" stroke-linejoin="round"/>
    <path d="M931.42 1.978h9.924" stroke="#F2F2F2" stroke-width="1.8" stroke-linecap="round" stroke-linejoin="round"/>
    <path d="M976.863 12.605c0 .629-.506 1.134-1.135 1.134a1.131 1.131 0 0 1-1.134-1.134c0-.629.505-1.135 1.134-1.135.629 0 1.135.506 1.135 1.135Zm4.725 0c0 .629-.506 1.134-1.135 1.134a1.132 1.132 0 0 1-1.135-1.134c0-.629.506-1.135 1.135-1.135s1.135.506 1.135 1.135Zm-14.58 23.431c5.8-5.8 5.8-15.203 0-21.003-5.8-5.8-15.204-5.8-21.004 0-5.8 5.8-5.8 15.203 0 21.003 5.8 5.8 15.204 5.8 21.004 0Z" fill="#fff" stroke="#F2F2F2" stroke-width="1.8" stroke-linecap="round" stroke-linejoin="round"/>
    <path d="M964.407 33.436c4.364-4.364 4.363-11.439-.001-15.803-4.364-4.364-11.439-4.364-15.803 0-4.364 4.364-4.364 11.44 0 15.803 4.364 4.364 11.439 4.364 15.804 0Z" fill="#fff" stroke="#F2F2F2" stroke-width="1.8" stroke-linecap="round" stroke-linejoin="round"/>
    <path d="m1007 105.109 9.34 3.51" stroke="#F2F2F2" stroke-width="1.8" stroke-linecap="round" stroke-linejoin="round"/>
    <path d="m1033.96 68.606-5.86 15.6c-1.54 4.107-6.15 6.198-10.26 4.657-4.09-1.542-6.19-6.155-4.65-10.262L1019.05 63l14.91 5.606Z" fill="#fff" stroke="#F2F2F2" stroke-width="1.8" stroke-linecap="round" stroke-linejoin="round"/>
    <path d="M1018.37 87.438a6.442 6.442 0 0 1-3.76-8.304l1.89-5.04 12.07 4.533-1.89 5.04c-1.25 3.329-4.98 5.02-8.31 3.766v.005Z" fill="#fff" stroke="#F2F2F2" stroke-width="1.8" stroke-linecap="round" stroke-linejoin="round"/>
    <path d="m1017.84 88.862-6.7 17.804m51.64-1.557-9.33 3.51" stroke="#F2F2F2" stroke-width="1.8" stroke-linecap="round" stroke-linejoin="round"/>
    <path d="m1035.82 68.606 5.87 15.6c1.54 4.107 6.15 6.198 10.25 4.657 4.1-1.542 6.2-6.155 4.66-10.262L1050.74 63l-14.92 5.606Z" fill="#fff" stroke="#F2F2F2" stroke-width="1.8" stroke-linecap="round" stroke-linejoin="round"/>
    <path d="M1051.41 87.438c3.33-1.248 5.02-4.976 3.77-8.304l-1.89-5.04-12.07 4.533 1.89 5.04c1.25 3.329 4.98 5.02 8.3 3.766v.005Z" fill="#fff" stroke="#F2F2F2" stroke-width="1.8" stroke-linecap="round" stroke-linejoin="round"/>
    <path d="m1051.95 88.862 6.69 17.804" stroke="#F2F2F2" stroke-width="1.8" stroke-linecap="round" stroke-linejoin="round"/>
    <path d="M400.182 326.604s2.936 3.723-1.709 7.445m-7.911-76.192s4.739.153 4.597 6.099m89.687-116.766s4.738.152 4.596 6.099m-142.372 24.69s4.739.152 4.597 6.098M567.563 39.626s.957 4.64-4.862 5.893m252.516 305.088s.957 4.64-4.862 5.893m14.514-198.252s.958 4.64-4.861 5.893M610.83 419.103s.958 4.64-4.861 5.893M866.695 15.943s-4.65.913-5.843-4.916M669.556 157.498s-2.706 3.894-7.617.53m27.126 248.028s-2.705 3.894-7.616.53m197.779-182.969s-2.706 3.894-7.617.53M412.145 23.382s.957 4.64-4.862 5.892" stroke="#EB5C2B" stroke-width="1.9" stroke-linecap="round" stroke-linejoin="round"/>
    <path d="M370.764 311.333s.074 3.732-4.7 3.432" stroke="#EB5C2B" stroke-width="1.51" stroke-linecap="round" stroke-linejoin="round"/>
    <path d="M388.422 323.55s-2.46 1.689-.462 5.274m510.763 56.406s-2.46 1.69-.462 5.274m-484.864-78.096s-2.461 1.689-.462 5.274m8.098 64.617s.28 2.971 4.385 2.966m27.974-51.653s-2.691-1.287-4.802 2.229m-37.309-105.905s-2.691-1.286-4.802 2.23m65.644-62.039s-2.691-1.287-4.803 2.229m162.057 19.957s-2.691-1.287-4.803 2.229" stroke="#fff" stroke-width="1.9" stroke-linecap="round" stroke-linejoin="round"/>
    <path d="M515.739 32.201s-.717-4.6-7.11-4.208m87.714 77.684s-1.547 4.39 4.262 7.076m318.084-36.927s-1.547 4.39 4.262 7.076" stroke="#fff" stroke-width="2.97" stroke-linecap="round" stroke-linejoin="round"/>
    <path d="M667.444 13.689s-3.619 2.264-.987 7.508m-.957 75.479s-3.987-1.517-6.58 3.752" stroke="#fff" stroke-width="2.72" stroke-linecap="round" stroke-linejoin="round"/>
    <path d="M524.691 74.167s-.717-4.602-7.111-4.209" stroke="#fff" stroke-width="2.97" stroke-linecap="round" stroke-linejoin="round"/>
    <path d="M352.535 109.217s2.097-5.554-5.234-9.143m499.713 2.828s2.097-5.554-5.235-9.143M298.381 206.985s5.77-1.399 4.601-9.482m115.69-59.55s5.77-1.399 4.601-9.482m279.198 208.681s5.77-1.399 4.601-9.482" stroke="#fff" stroke-width="3.78" stroke-linecap="round" stroke-linejoin="round"/>
    <path d="M388.771 398.13s.28 2.971 4.386 2.966" stroke="#fff" stroke-width="1.9" stroke-linecap="round" stroke-linejoin="round"/>
    <path d="M405.89 341.267s-2.053 3.943-6.099 1.689" stroke="#F9D6AF" stroke-width="1.9" stroke-linecap="round" stroke-linejoin="round"/>
    <path d="M299.099 260.479s-2.053 3.944-6.099 1.69m562.376 93.132s-2.052 3.943-6.099 1.689M389.442 205.904s-4.326 1.037-5.274-3.496m53.737-19.681s-4.326 1.036-5.274-3.496m6.709-89.577s-4.326 1.036-5.274-3.496m236.374 43.737s-4.326 1.036-5.274-3.496m-13.261 251.407s-4.326 1.036-5.274-3.496" stroke="#F2F2F2" stroke-width="1.9" stroke-linecap="round" stroke-linejoin="round"/>
    <path d="M642.14 47.414s-1.031-7.518 6.821-8.373m242.828 378.731s-1.031-7.518 6.821-8.372M854.187 67.513s-1.031-7.518 6.821-8.372m-30.336 153.481s-1.032-7.518 6.82-8.372M572.574 85.996s-6.59-3.762-2.485-10.509m32.434 253.317s-6.59-3.761-2.485-10.508" stroke="#F2F2F2" stroke-width="3.24" stroke-linecap="round" stroke-linejoin="round"/>
    <path d="M369.017 335.783c0 .978-.791 1.769-1.769 1.769a1.768 1.768 0 0 1-1.769-1.769c0-.978.791-1.769 1.769-1.769.978 0 1.769.791 1.769 1.769Zm165.424 17.047a1.769 1.769 0 1 1-3.539 0 1.769 1.769 0 1 1 3.539 0Zm11.869-51.023a1.769 1.769 0 1 1-1.769-1.769c.978 0 1.769.791 1.769 1.769Zm32.752 74.505a1.769 1.769 0 1 1-1.769-1.769c.978 0 1.769.791 1.769 1.769Zm163.978-39.206c0 .978-.791 1.769-1.769 1.769a1.769 1.769 0 1 1 1.769-1.769Zm-382.357 10.629c0 .978-.791 1.769-1.769 1.769a1.768 1.768 0 0 1-1.769-1.769c0-.978.791-1.769 1.769-1.769.978 0 1.769.791 1.769 1.769Z" fill="#F2F2F2"/>
    <path d="M373.466 349.504c0 .978-.791 1.769-1.769 1.769a1.768 1.768 0 0 1-1.769-1.769c0-.978.791-1.769 1.769-1.769.978 0 1.769.791 1.769 1.769ZM531.31 227.189a1.769 1.769 0 1 1-1.769-1.77c.978 0 1.769.792 1.769 1.77Zm158.289-34.46c0 .978-.791 1.769-1.769 1.769a1.768 1.768 0 0 1-1.769-1.769c0-.978.791-1.769 1.769-1.769.978 0 1.769.791 1.769 1.769Zm143.148-35.001c0 .978-.791 1.769-1.769 1.769a1.769 1.769 0 1 1 1.769-1.769ZM283.05 280.695c0 .978-.791 1.769-1.769 1.769a1.768 1.768 0 0 1-1.769-1.769c0-.978.791-1.769 1.769-1.769.978 0 1.769.791 1.769 1.769Zm45.418-137.556c0 .978-.791 1.769-1.769 1.769a1.768 1.768 0 0 1-1.769-1.769c0-.978.791-1.769 1.769-1.769.978 0 1.769.791 1.769 1.769Zm26.713 55.095a1.769 1.769 0 1 1-3.538 0 1.768 1.768 0 1 1 3.538 0Zm92.99-40.938a1.768 1.768 0 1 1-3.538 0 1.769 1.769 0 1 1 3.538 0Zm71.217-40.126a1.768 1.768 0 1 1-3.538 0 1.769 1.769 0 1 1 3.538 0Zm68.385-4.37a1.769 1.769 0 1 1-1.769-1.769c.977 0 1.769.791 1.769 1.769Zm151.734 67.637c0 .978-.791 1.769-1.769 1.769a1.769 1.769 0 1 1 1.769-1.769ZM423.359 112.8a1.769 1.769 0 1 1-3.539 0 1.769 1.769 0 1 1 3.539 0Zm-21.604 222.639c0 .978-.791 1.769-1.769 1.769a1.768 1.768 0 0 1-1.769-1.769c0-.978.791-1.769 1.769-1.769.978 0 1.769.791 1.769 1.769Zm-13.305 55.953c0 .978-.791 1.769-1.769 1.769a1.768 1.768 0 0 1-1.769-1.769c0-.978.791-1.769 1.769-1.769.978 0 1.769.791 1.769 1.769Zm185.598-148.475c0 .978-.791 1.769-1.769 1.769a1.769 1.769 0 1 1 1.769-1.769Zm-3.535 91.097c0 .978-.791 1.769-1.769 1.769a1.768 1.768 0 0 1-1.769-1.769c0-.978.791-1.769 1.769-1.769.978 0 1.769.791 1.769 1.769Zm113.248 45.327a1.769 1.769 0 1 1-3.538 0c0-.978.791-1.769 1.769-1.769.978 0 1.769.791 1.769 1.769ZM398.216 253.685a1.77 1.77 0 1 0 0-3.54 1.77 1.77 0 0 0 0 3.54Zm130.731-93.617a1.769 1.769 0 1 0 0-3.538 1.769 1.769 0 0 0 0 3.538Zm-115.731 31.405c0 .978-.791 1.769-1.769 1.769a1.768 1.768 0 0 1-1.769-1.769c0-.978.791-1.769 1.769-1.769.978 0 1.769.791 1.769 1.769Zm-20.934-45.738a1.769 1.769 0 1 1-3.538 0c0-.978.791-1.769 1.769-1.769.978 0 1.769.791 1.769 1.769ZM510.12 78.618a1.768 1.768 0 1 1-3.538 0 1.768 1.768 0 1 1 3.538 0Z" fill="#EB5C2B"/>
    <path d="M356.947 337.549a1.769 1.769 0 1 1-3.539 0 1.769 1.769 0 1 1 3.539 0Zm-31.534-99.181c0 .978-.791 1.769-1.769 1.769a1.768 1.768 0 0 1-1.769-1.769c0-.978.791-1.769 1.769-1.769.978 0 1.769.791 1.769 1.769ZM483.148 55.814a1.769 1.769 0 1 1-3.54 0 1.769 1.769 0 0 1 3.54 0ZM307.052 182.206c0 .978-.791 1.769-1.769 1.769a1.768 1.768 0 0 1-1.769-1.769c0-.978.791-1.769 1.769-1.769.978 0 1.769.791 1.769 1.769Zm60.195-60.055c0 .978-.791 1.769-1.769 1.769a1.768 1.768 0 0 1-1.769-1.769c0-.978.791-1.769 1.769-1.769.978 0 1.769.791 1.769 1.769Zm143.364 263.648a1.769 1.769 0 1 1-3.539 0 1.769 1.769 0 1 1 3.539 0Zm37.466 17.585c0 .978-.791 1.769-1.769 1.769a1.768 1.768 0 0 1-1.769-1.769c0-.978.791-1.769 1.769-1.769.978 0 1.769.791 1.769 1.769Zm133.914-67.601c0 .978-.791 1.769-1.769 1.769a1.768 1.768 0 0 1-1.769-1.769c0-.978.791-1.769 1.769-1.769.978 0 1.769.791 1.769 1.769Zm-304.986-50.858a1.769 1.769 0 1 1-3.538 0c0-.978.791-1.769 1.769-1.769.978 0 1.769.791 1.769 1.769ZM567.939 76.85a1.769 1.769 0 1 1-1.769-1.77c.978 0 1.769.791 1.769 1.77Zm68.795-27.49a1.769 1.769 0 1 1-3.537 0 1.769 1.769 0 0 1 3.537 0ZM382.236 182.206a1.769 1.769 0 1 1-3.539 0 1.769 1.769 0 1 1 3.539 0Zm171.308-7.337c0 .978-.791 1.769-1.769 1.769a1.768 1.768 0 0 1-1.769-1.769c0-.978.791-1.769 1.769-1.769.978 0 1.769.791 1.769 1.769Zm231.99-46.862a1.769 1.769 0 1 1-3.538 0c0-.978.791-1.769 1.769-1.769.978 0 1.769.791 1.769 1.769Zm-55.8 105.412a1.769 1.769 0 1 1-3.539 0 1.769 1.769 0 1 1 3.539 0Zm-274.908-99.357a1.769 1.769 0 1 0 0-3.538 1.769 1.769 0 0 0 0 3.538ZM564.63 155.53c0 .978-.791 1.769-1.769 1.769a1.768 1.768 0 0 1-1.769-1.769c0-.978.791-1.769 1.769-1.769.978 0 1.769.791 1.769 1.769Z" fill="#fff"/>
    <path d="M346.904 280.695a1.769 1.769 0 1 1-3.539 0 1.769 1.769 0 1 1 3.539 0Zm45.378-47.624a1.769 1.769 0 1 1-3.538 0c0-.978.791-1.769 1.769-1.769.978 0 1.769.791 1.769 1.769Zm-51.476-65.842c0 .978-.791 1.769-1.769 1.769a1.769 1.769 0 1 1 1.769-1.769Zm-37.766 91.068c0 .978-.791 1.769-1.769 1.769a1.768 1.768 0 0 1-1.769-1.769c0-.978.791-1.769 1.769-1.769.978 0 1.769.791 1.769 1.769Zm140.135-157.376a1.769 1.769 0 1 1-3.537.003 1.769 1.769 0 0 1 3.537-.003Zm94.193-47.707a1.768 1.768 0 1 1-3.538 0 1.768 1.768 0 1 1 3.538 0Zm-54.218 49.473a1.769 1.769 0 1 1-3.539 0 1.77 1.77 0 1 1 3.539 0Zm258.121-3.729a1.768 1.768 0 1 1-1.769-1.77 1.77 1.77 0 0 1 1.769 1.77Zm-189.157 22.438c0 .978-.791 1.769-1.769 1.769a1.768 1.768 0 0 1-1.769-1.769c0-.978.791-1.769 1.769-1.769.978 0 1.769.791 1.769 1.769Zm155.965 115.755a1.769 1.769 0 1 1-3.538 0c0-.978.791-1.769 1.769-1.769.978 0 1.769.791 1.769 1.769Zm-12.578 34.442c0 .978-.791 1.769-1.769 1.769a1.768 1.768 0 0 1-1.769-1.769c0-.978.791-1.769 1.769-1.769.978 0 1.769.791 1.769 1.769Zm-98.722-131.971a1.769 1.769 0 1 1-3.539 0 1.769 1.769 0 1 1 3.539 0Zm16.619-64.124a1.769 1.769 0 1 0 0-3.538 1.769 1.769 0 0 0 0 3.538Zm-113.743 85.346c0 .978-.791 1.769-1.769 1.769a1.768 1.768 0 0 1-1.769-1.769c0-.978.791-1.769 1.769-1.769.978 0 1.769.791 1.769 1.769Zm77.038 44.196a1.769 1.769 0 1 1-3.539 0 1.769 1.769 0 1 1 3.539 0Z" fill="#F2F2F2"/>
    <path d="m786.808-18.425-26.574 11.86 15.692 35.16L802.5 16.733l-15.692-35.16Z" fill="#fff" stroke="#F2F2F2" stroke-width="1.79" stroke-linecap="round" stroke-linejoin="round"/>
    <path d="m775.594-13.42-4.141 1.849 15.692 35.159 4.141-1.848-15.692-35.16Z" fill="#fff" stroke="#F2F2F2" stroke-width="1.8" stroke-linecap="round" stroke-linejoin="round"/>
    <path d="M795.294-1.283s-7.138-10.964-10.586-4.55c-2.78 5.18 10.586 4.55 10.586 4.55Z" stroke="#F2F2F2" stroke-width="1.8" stroke-linecap="round" stroke-linejoin="round"/>
    <path d="m803.758-4.913-18.315 8.174 7.847 17.582 18.315-8.174-7.847-17.582Z" fill="#fff" stroke="#F2F2F2" stroke-width="1.79" stroke-linecap="round" stroke-linejoin="round"/>
    <path d="m797.054-1.92-1.929.86 7.847 17.583 1.929-.861-7.847-17.582Zm1.565 8.692-9.685 4.322.857 1.92 9.685-4.322-.857-1.92Zm8.643-3.858-6.709 2.995.857 1.92 6.709-2.995-.857-1.92Z" stroke="#F2F2F2" stroke-width="1.55" stroke-linecap="round" stroke-linejoin="round"/>
    <path d="m338.001 11.351 41.605 22.574L404.035 4.01l-41.6-22.57-24.434 29.911Z" fill="#fff" stroke="#F2F2F2" stroke-width="1.28" stroke-linecap="round" stroke-linejoin="round"/>
    <path d="M392.577 40.963 350.971 18.39l11.761-36.788 41.606 22.574-11.761 36.787Z" fill="#fff" stroke="#F2F2F2" stroke-width="1.28" stroke-linecap="round" stroke-linejoin="round"/>
    <path d="M402.605 9.616 361-12.958m2.957 7.24 16.512 8.959" stroke="#F2F2F2" stroke-width="1.28" stroke-linecap="round" stroke-linejoin="round"/>
    <path d="m365.565 7.97-6.4-3.472 2.22-7.073 6.395 3.47-2.215 7.075Zm9.631 5.225-6.395-3.47 2.215-7.076 6.395 3.47-2.215 7.076Zm9.628 5.225-6.395-3.47 2.219-7.073 6.395 3.47-2.219 7.073Zm9.635 5.227-6.395-3.47 2.215-7.075 6.395 3.47-2.215 7.075Zm-22.656-.451-6.395-3.47 2.215-7.076 6.395 3.47-2.215 7.076Zm9.637 5.227-6.4-3.472 2.22-7.073 6.395 3.47-2.215 7.075Zm9.629 5.225-6.395-3.47 2.215-7.075 6.395 3.47-2.215 7.075Z" fill="#fff" stroke="#F2F2F2" stroke-width="1.28" stroke-linecap="round" stroke-linejoin="round"/>
    <path d="M682.814 401.089c3.696-11.754 10.142-40.672 13.673-56.879a2824.963 2824.963 0 0 0 2.462-11.491h.007a24.802 24.802 0 0 1 2.169-5.977l17.98 74.149a2149.831 2149.831 0 0 0-5.578 13.604l-.092-.044a17.96 17.96 0 0 1-.897 1.641c-4.894 7.824-15.208 10.208-23.039 5.315-6.949-4.344-9.059-12.769-6.685-20.314v-.004Z" fill="#2F60A0"/>
    <path d="M702.155 324.932a24.875 24.875 0 0 1 7.131-7.417c5.106-6.19 13.102-9.817 21.699-8.996 12.56 1.212 22.047 11.512 22.589 23.76v.008c.051 1.161.029 2.34-.085 3.523a24.513 24.513 0 0 1-.527 3.194 569.102 569.102 0 0 0-.308 3.773c-.714 9.208-1.52 22.383-1.055 30.614.784 13.709 2.26 32.69 2.26 32.69l-.106.007c.007.612-.014 1.235-.069 1.861-.883 9.194-9.051 15.93-18.238 15.043-8.161-.784-13.809-7.377-15.058-15.193-.307-1.927-.743-4.267-1.278-6.912l-17.981-74.149c.315-.612.656-1.216 1.026-1.81v.004Z" fill="#3B76C2"/>
    <path d="M729.403 213.935c0 1.809.729 3.78 1.67 3.978.938.197 1.301-3.561 3.963-4.971 2.663-1.41 11.747-6.003 12.527-13.281.784-7.282-2.113-9.553-3.758-10.725-1.644-1.172-2.974-.626-4.695-4.384-1.722-3.758-3.66-10.582-11.795-10.102-6.655.392-7.999-7.322-14.12-.934-3.601 3.758-1.956 9.552 3.465 11.146 5.538 1.626 4.677 24.083 4.677 24.083l8.066 5.194v-.004Z" fill="#621317"/>
    <path d="M708.685 218.795c4.231 2.605 10.886 2.07 16.978-.879.022-.007.036-.022.058-.029 4.11-1.996 7.96-5.099 10.644-9.08.059-.084.114-.172.165-.256.128-.18.249-.37.363-.557 6.435-10.443 4.556-20.651-2.74-25.145-5.223-3.209-11.813-2.626-17.49 1.806-2.253 1.747-4.143 4.596-5.971 7.567-2.333 3.794-4.124 7.457-4.908 11.373-1.406 6.875-.443 13.017 2.905 15.2h-.004Z" fill="#F1876E"/>
    <path d="M696.488 344.213c7.575 1.22 21.647 3.194 31.193 2.868 9.351-.322 19.515-2.787 24.973-4.3.106-1.355.205-2.619.308-3.773.242-1.04.421-2.102.527-3.194.114-1.183.136-2.362.084-3.523v-.008c-.542-12.248-10.028-22.548-22.588-23.76-8.597-.821-16.593 2.802-21.699 8.996a24.926 24.926 0 0 0-7.132 7.417 24.81 24.81 0 0 0-3.194 7.791h-.007s-.971 4.593-2.461 11.49l-.004-.004Z" fill="#2F60A0"/>
    <path d="M689.628 339.404s22.86 4.223 36.485 3.758c13.626-.473 28.966-5.487 28.966-5.487s-2.659-14.713-4.23-28.339c-1.561-13.626 3.197-40.283 6.662-45.411 4.693-6.941 1.744-13.805-1.26-16.736-4.465-4.358-15.164-8.721-20.94-13.57 0 0-22.039 17.31-25.798 32.192 0 0-.842-24.215-.106-31.057-3.56 7.762-9.358 21.713-11.256 34.082-2.816 18.333-8.523 70.568-8.523 70.568Z" fill="#3B76C2"/>
    <path d="M738.348 248.841h.003c2.967-2.564 7.099-3.692 11.19-2.652 6.648 1.692 10.667 8.45 8.978 15.098a12.316 12.316 0 0 1-3.513 5.956v.007s-30.046 30.061-39.346 34.394c-5.967 3.201-13.399.963-16.604-5.003-3.201-5.967.447-12.362 5.004-16.604l34.031-30.965c.07-.062.136-.125.205-.187l.055-.051-.003.007Z" fill="#3B76C2"/>
    <path d="m673.277 230.601-13.264 5.475c.107.513.282 1.015.502 1.484 0 0 16.131 38.917 20.095 52.154.348 1.158.696 1.982 1.12 2.78 1.601 3.019 4.722 5.121 8.366 5.641 6.341.905 12.209-3.494 13.113-9.827a11.474 11.474 0 0 0-.901-6.355s-.813-1.571-1.245-2.179c0 0-20.413-36.401-26.995-48.009a8.964 8.964 0 0 0-.791-1.164Z" fill="#3B76C2"/>
    <path d="M666.848 227.608c-2.359-.605-2.366 2.164-2.366 2.164-2.879-.395-2.307 2.418-2.307 2.418-2.315-.601-1.861 2.381-1.795 2.579.447 1.355 6.967 5.735 9.018 6.054 2.267.352 2.329-1.765 2.329-1.765 2.315.465 2.403-1.927 2.403-1.927 2.399.143 2.509-2.322 2.509-2.322s1.528.692 2.414-.799c.886-1.49-1.41-2.985-2.535-3.703-.875-.549-3.945-2.179-6.586-4.018-2.498-1.74-3.08 1.319-3.08 1.319h-.004Z" fill="#621317"/>
    <path d="M710.475 232.468c-1.794 1.502-6.527 4.044-10.772 10.066-3.234 4.586-7.648 16.281-8.245 20.354-1.564 10.648 8.036 17.222 8.036 17.222l17.311-23.8-6.33-23.845v.003Z" fill="#3B76C2"/>
    <path d="M677.295 230.293s5.601 3.563 3.07 8.519c-2.528 4.956-6.425-5.868-6.425-5.868l2.37-3.267.985.612v.004Z" fill="#F1876E"/>
    <path d="m681.825 239.205-12.135 7.655c.194.487.45.949.747 1.377 0 0 22.53 35.595 28.691 47.964.539 1.085 1.022 1.835 1.575 2.55 2.095 2.699 5.528 4.241 9.205 4.131 6.403-.187 11.435-5.523 11.245-11.918a11.472 11.472 0 0 0-1.971-6.106s-1.069-1.411-1.597-1.938c0 0-26.317-32.39-34.786-42.701a8.752 8.752 0 0 0-.978-1.014h.004Z" fill="#3B76C2"/>
    <path d="M669.726 246.918c.165.257.579.33 1.168.235.858-.114 2.092-.564 3.473-1.271l.106-.059.663-.355.15-.077c.465-.264.942-.55 1.425-.857 2.326-1.484 4.139-3.088 4.842-4.201.323-.484.422-.88.264-1.129-.143-.219-.465-.307-.934-.263-1.278.091-3.608 1.084-6.055 2.644-2.274 1.454-4.065 3.026-4.809 4.139-.348.513-.465.934-.3 1.191l.007.003Z" fill="#2F60A0"/>
    <path d="m668.719 241.021 1.212 3.41.967 2.722c.858-.11 2.088-.564 3.473-1.268l.106-.054.663-.363.154-.077c.458-.264.941-.549 1.428-.857 2.326-1.484 4.136-3.091 4.846-4.198l-1.428-1.816-2.41-3.07-5.421 3.348-.055.04-2.909 1.795-.179.11-.44.271-.007.007Z" fill="#F1876E"/>
    <path d="m695.189 202.841 6.557 4.274-11.288 17.315-6.557-4.274 11.288-17.315Zm-63.188.889 45.339 12.161 11.289-17.314L659.202 162l-27.201 41.73Z" fill="#99C5FF"/>
    <path d="m688.63 198.567 6.558 4.274-24.552 37.662-6.557-4.275 24.551-37.661Z" fill="#3B76C2"/>
    <path d="M683.312 399.232c-1.165 2.447-1.498 5.036-1.623 7.571-.934 19.295-9.527 78.186-9.527 78.186h20.395l21.329-72.263c3.326-8.143-.246-17.571-8.289-21.398-8.341-3.971-18.314-.425-22.285 7.908v-.004Z" fill="#2F60A0"/>
    <path d="M721.878 413.389c1.132 2.465 2.905 4.38 4.769 6.098 14.205 13.095 54.584 58.433 54.584 58.433l14.384-14.267-43.771-65.066c-4.113-7.772-13.637-11.08-21.735-7.366-8.395 3.85-12.077 13.78-8.227 22.168h-.004Z" fill="#3B76C2"/>
    <path d="m714.629 218.891-2.297 9.812 3.238 6.055 12.839-1.879 3.652-6.025-1.671-15.058-15.761 7.095Z" fill="#F1876E"/>
    <path d="M709.513 265.815c3.758-14.879 25.798-32.193 25.798-32.193-.601-.813-1.403-1.725-1.839-2.725a30.422 30.422 0 0 1-1.407-4.029l-.007-.014s-7.513 4.878-14.56 4.508c-3.839-.194-5.172-2.659-5.172-2.659s-.721 1.392-1.853 3.766c-.33.685-.685 1.446-1.07 2.289-.736 6.842.106 31.057.106 31.057h.004Z" fill="#fff"/>
    <path d="m717.501 231.362 1.875 9.029 14.095-9.494a30.422 30.422 0 0 1-1.407-4.029l-.007-.014s-7.513 4.878-14.56 4.508h.004Z" fill="#fff"/>
    <path d="m717.776 232.681 1.604 7.71 13.391-9.017" stroke="#3B76C2" stroke-width=".97" stroke-linecap="round" stroke-linejoin="round"/>
    <path d="m710.477 232.468 1.853 6.099 5.172-7.205c-3.839-.194-5.172-2.659-5.172-2.659s-.722 1.392-1.853 3.765Z" fill="#fff"/>
    <path d="m710.691 233.175 1.641 5.392 4.473-6.234" stroke="#3B76C2" stroke-width=".97" stroke-linecap="round" stroke-linejoin="round"/>
    <path d="M703.645 212.81c-.157 6.106 2.586 8.846 8.3 8.846s11.765-2.699 13.721-3.74c.022-.007.037-.022.059-.029 1.912-1.026 4.23-10.479 6.34-13.453 2.062-2.89 7.117-.378 4.465 4.117.128-.18.249-.37.363-.557 6.435-10.443 4.556-20.651-2.74-25.145-5.223-3.209-11.813-2.626-17.49 1.806 1.069.534 1.897 1.069 2.245 1.542 1.568 2.109-1.249 4.93 1.176 7.512s6.421 2.117 7.124 4.937c1.257 5.029-9.977 12.875-21.427 4.949h-.008s-1.974 3.113-2.132 9.219l.004-.004Zm-11.14 272.179 1.136 9.395h-40.709l19.178-9.395h20.395Zm103.107-21.336 8.999 6.333-19.937 24.398h-9.706l6.417-3.963-.157-12.501 14.384-14.267Z" fill="#621317"/>
    <path d="M716.663 184.658a15.868 15.868 0 0 1-2.989-1.516c-.93-.608-1.802-1.326-2.461-2.213-.659-.879-1.081-1.937-1.077-3.029-.004-1.091.385-2.153.934-3.106.553-.956 1.223-1.853 2.073-2.553a5.98 5.98 0 0 1 2.96-1.326c1.088-.153 2.212.015 3.252.4 1.048.373 2.011.978 2.85 1.721a8.493 8.493 0 0 0-2.784-1.89c-1.047-.428-2.205-.637-3.351-.513-1.147.121-2.238.627-3.128 1.348-.894.725-1.605 1.645-2.172 2.63-.561.989-.964 2.114-.949 3.282.007 1.165.465 2.3 1.183 3.19.714.901 1.623 1.608 2.586 2.194a14.475 14.475 0 0 0 3.081 1.374l-.008.007Z" fill="#621317"/>
    <path d="M733.252 288.678c-9 7.908-18.999 14.962-25.691 14.211-13.6-1.52-23.098-24.079-23.098-24.079m68.711-9.736c-1.52 1.484-5.341 5.634-10.282 10.542m7.124-32.46s-12.264-2.798-31.549 19.779" stroke="#6398DD" stroke-width="1.46" stroke-linecap="round" stroke-linejoin="round"/>
    <path d="M695.923 256.292s18.157 18.837 18.065 25.416c-.092 6.574-4.161-4.462-4.553-6.498m32.754-33.907c-3.443.084-9.417.502-9.417.502l2.11 4.531s-20.816 13.677-23.384 19.479m-6.543-27.248 1.586 2.736-3.219 3.11s4.102 10.593 4.52 20.013M706.66 349l12.11 50.243" stroke="#6398DD" stroke-width="1.46" stroke-linecap="round" stroke-linejoin="round"/>
    <path d="m735.82 350.678 6.89 53.546 45.097 59.429" stroke="#6398DD" stroke-width="1.95" stroke-linecap="round" stroke-linejoin="round"/>
    <path d="M668.192 229.751c-2.359-.605-2.366 2.164-2.366 2.164-2.879-.395-2.308 2.418-2.308 2.418-2.315-.601-2.212 1.56-1.586 2.483.638.941 6.758 5.828 8.809 6.146 2.268.348 2.33-1.765 2.33-1.765 2.315.465 2.403-1.927 2.403-1.927 2.399.143 2.509-2.322 2.509-2.322s1.527.692 2.414-.798c.886-1.491-1.41-2.986-2.535-3.704-.875-.549-3.945-2.179-6.586-4.018-2.498-1.74-3.08 1.319-3.08 1.319l-.004.004Z" fill="#F1876E"/>
    <path d="M674.357 234.622s-3.985-2.615-6.164-4.868m4.873 8.077s-5.018-3.641-7.237-5.915m4.872 8.226s-4.82-2.982-7.179-5.809" stroke="#621317" stroke-width="1.16" stroke-linecap="round" stroke-linejoin="round"/>
  </g>
  <path d="M135.999 217.227c4.971 1.958 10.136.662 11.537-2.895 1.401-3.556-1.493-8.027-6.464-9.985-4.97-1.958-10.135-.662-11.536 2.895-1.401 3.556 1.492 8.027 6.463 9.985Z" fill="#F2F2F2"/>
  <path d="m157.559 181.062-13.055 33.14" stroke="#F2F2F2" stroke-width="4.88" stroke-miterlimit="10"/>
  <path d="M160.129 208.461a23.533 23.533 0 0 0 3.6-6.084c.847-2.15 1.297-4.431 1.017-6.514-.255-2.084-1.207-3.893-2.619-5.346-1.413-1.453-3.204-2.593-5.146-3.512l3.066-4.989c2.114 1.588 4.113 3.502 5.601 5.868 1.497 2.343 2.288 5.241 2.037 7.959-.224 2.716-1.293 5.137-2.649 7.215a24.455 24.455 0 0 1-4.896 5.408l-.011-.005Z" fill="#F2F2F2"/>
  <path d="m1 332.109 9.34 3.51" stroke="#F2F2F2" stroke-width="1.8" stroke-linecap="round" stroke-linejoin="round"/>
  <path d="m27.962 295.606-5.861 15.6c-1.542 4.107-6.155 6.198-10.257 4.657-4.096-1.542-6.198-6.155-4.656-10.262L13.049 290l14.913 5.606Z" fill="#fff" stroke="#F2F2F2" stroke-width="1.8" stroke-linecap="round" stroke-linejoin="round"/>
  <path d="M12.373 314.438a6.45 6.45 0 0 1-3.766-8.304l1.894-5.04 12.07 4.533-1.894 5.041c-1.248 3.328-4.976 5.019-8.304 3.765v.005Z" fill="#fff" stroke="#F2F2F2" stroke-width="1.8" stroke-linecap="round" stroke-linejoin="round"/>
  <path d="m11.838 315.862-6.693 17.804m51.64-1.557-9.34 3.51" stroke="#F2F2F2" stroke-width="1.8" stroke-linecap="round" stroke-linejoin="round"/>
  <path d="m29.824 295.606 5.862 15.6c1.541 4.107 6.155 6.198 10.257 4.657 4.096-1.542 6.197-6.155 4.656-10.262L44.737 290l-14.913 5.606Z" fill="#fff" stroke="#F2F2F2" stroke-width="1.8" stroke-linecap="round" stroke-linejoin="round"/>
  <path d="M45.415 314.438c3.328-1.248 5.019-4.976 3.765-8.304l-1.893-5.04-12.07 4.533 1.893 5.041c1.248 3.328 4.977 5.019 8.305 3.765v.005Z" fill="#fff" stroke="#F2F2F2" stroke-width="1.8" stroke-linecap="round" stroke-linejoin="round"/>
  <path d="m45.947 315.862 6.694 17.804" stroke="#F2F2F2" stroke-width="1.8" stroke-linecap="round" stroke-linejoin="round"/>
  <path d="M1146.39 65.034c0 2.354-2.96 4.251-6.63 4.251s-6.64-1.905-6.64-4.25c0-2.347 2.97-4.252 6.64-4.252 3.67 0 6.63 1.905 6.63 4.251Zm-27.09 0c2.93 0 5.3-1.523 5.3-3.401s-2.37-3.401-5.3-3.401c-2.93 0-5.3 1.523-5.3 3.401s2.37 3.401 5.3 3.401Z" fill="#F2F2F2"/>
  <path d="M1144.79 65.034V39.79l-21.8-8.79v30.633m0-22.654 21.8 9.042" stroke="#F2F2F2" stroke-width="3.83" stroke-miterlimit="10"/>
  <path d="m78.868 89.795-9.087 2.435 6.084 22.705 9.087-2.435-6.084-22.705Z" fill="#fff" stroke="#F2F2F2" stroke-width="1.79" stroke-linecap="round" stroke-linejoin="round"/>
  <path d="m79.322 47.314 8.632 32.216c1.076 4.017-1.333 8.189-5.35 9.265l-16.747 4.487c-4.017 1.077-8.189-1.332-9.265-5.349L47.96 55.717c-.89-3.322.601-6.752 3.42-8.444a7.632 7.632 0 0 1 1.929-.82l16.748-4.488a7.23 7.23 0 0 1 2.089-.25c3.286.056 6.285 2.277 7.175 5.6Z" fill="#fff" stroke="#F2F2F2" stroke-width="1.79" stroke-linecap="round" stroke-linejoin="round"/>
  <path d="m63.38 43.753 2.556 9.537a1.752 1.752 0 0 1-1.238 2.143 1.752 1.752 0 0 1-2.143-1.237L60 44.659l3.387-.908-.007.002Zm-8.683 2.327 2.555 9.537a1.752 1.752 0 0 1-1.237 2.143 1.752 1.752 0 0 1-2.143-1.237l-2.482-9.26a7.631 7.631 0 0 1 1.93-.82l1.381-.371-.004.008Z" fill="#fff" stroke="#F2F2F2" stroke-width="1.79" stroke-linecap="round" stroke-linejoin="round"/>
  <path d="m72.146 41.715 2.48 9.254a1.752 1.752 0 0 1-1.238 2.143 1.752 1.752 0 0 1-2.143-1.237l-2.556-9.537" fill="#fff"/>
  <path d="m72.146 41.715 2.48 9.254a1.752 1.752 0 0 1-1.238 2.143 1.752 1.752 0 0 1-2.143-1.237l-2.556-9.537" stroke="#F2F2F2" stroke-width="1.79" stroke-linecap="round" stroke-linejoin="round"/>
  <path d="m75.504 59.316-18.22 4.882a1.32 1.32 0 0 1-1.613-.932 1.32 1.32 0 0 1 .931-1.613l18.22-4.882a1.32 1.32 0 0 1 1.613.931 1.32 1.32 0 0 1-.931 1.614Zm1.32 4.929-18.22 4.882a1.32 1.32 0 0 1-1.613-.932 1.32 1.32 0 0 1 .932-1.613l18.22-4.882a1.32 1.32 0 0 1 1.613.931 1.32 1.32 0 0 1-.932 1.614Zm1.32 4.923L59.925 74.05a1.32 1.32 0 0 1-1.613-.932 1.32 1.32 0 0 1 .931-1.613l18.22-4.882a1.32 1.32 0 0 1 1.613.931 1.32 1.32 0 0 1-.932 1.614Zm.634 2.392-18.213 4.88c-.702.189-1.12.91-.932 1.61.188.701.91 1.117 1.613.929l18.212-4.88c.703-.189 1.12-.91.933-1.61a1.316 1.316 0 0 0-1.613-.929Zm2.005 7.46-18.22 4.882a1.32 1.32 0 0 1-1.613-.932 1.32 1.32 0 0 1 .932-1.613l18.22-4.882a1.32 1.32 0 0 1 1.613.931 1.32 1.32 0 0 1-.932 1.614Zm1.32 4.929L63.884 88.83a1.32 1.32 0 0 1-1.613-.931 1.32 1.32 0 0 1 .931-1.614l18.22-4.881a1.32 1.32 0 0 1 1.613.931 1.32 1.32 0 0 1-.932 1.614Z" fill="#fff" stroke="#F2F2F2" stroke-width="1.79" stroke-linecap="round" stroke-linejoin="round"/>
  <path d="M366.823 516.589c-24.5-6.5-13.999-8-1.5-7.501 10.64.426 32.701 4.801 47.501 12 18.5 9-21.501 2.001-46.001-4.499Zm379.585 3.047c14.201-3.971 8.115-4.887.87-4.582-6.167.26-18.955 2.933-27.533 7.331-10.723 5.499 12.462 1.222 26.663-2.749Z" fill="#EFE3D9"/>
  <defs>
    <clipPath id="a">
      <path fill="#fff" d="M144-80h959v575H144z"/>
    </clipPath>
    <filter id="b" x="259" y="87" width="648" height="286" filterUnits="userSpaceOnUse" color-interpolation-filters="sRGB">
      <feFlood flood-opacity="0" result="BackgroundImageFix"/>
      <feColorMatrix in="SourceAlpha" values="0 0 0 0 0 0 0 0 0 0 0 0 0 0 0 0 0 0 127 0" result="hardAlpha"/>
      <feOffset dy="14"/>
      <feGaussianBlur stdDeviation="12"/>
      <feComposite in2="hardAlpha" operator="out"/>
      <feColorMatrix values="0 0 0 0 0 0 0 0 0 0 0 0 0 0 0 0 0 0 0.25 0"/>
      <feBlend in2="BackgroundImageFix" result="effect1_dropShadow_1502_25588"/>
      <feBlend in="SourceGraphic" in2="effect1_dropShadow_1502_25588" result="shape"/>
    </filter>
  </defs>
</svg>