<svg fill="none" xmlns="http://www.w3.org/2000/svg" viewBox="0 0 1224 120"><g clip-path="url(#a)" fill="#E50505"><path opacity=".08" d="M660 366c0-173.97-141.03-315-315-315S30 192.03 30 366s141.03 315 315 315 315-141.03 315-315Z"/><path opacity=".08" d="M1173 370c0-173.97-141.03-315-315-315S543 196.03 543 370s141.03 315 315 315 315-141.03 315-315Z"/><path d="M985 370C985 165.655 819.345 0 615 0S245 165.655 245 370s165.655 370 370 370 370-165.655 370-370Z"/></g><defs><clipPath id="a"><path fill="#fff" d="M0 0h1224v120H0z"/></clipPath></defs></svg>