<svg fill="none" xmlns="http://www.w3.org/2000/svg" viewBox="0 0 1224 120"><g clip-path="url(#a)" fill="#E50505"><path opacity=".08" d="M564-246C564-72.03 705.03 69 879 69s315-141.03 315-315-141.03-315-315-315-315 141.03-315 315Z"/><path opacity=".08" d="M51-250C51-76.03 192.03 65 366 65S681-76.03 681-250 539.97-565 366-565 51-423.97 51-250Z"/><path d="M239-250c0 204.345 165.655 370 370 370S979-45.654 979-250c0-204.345-165.655-370-370-370S239-454.345 239-250Z"/></g><defs><clipPath id="a"><path fill="#fff" d="M1224 120H0V0h1224z"/></clipPath></defs></svg>