<svg fill="none" xmlns="http://www.w3.org/2000/svg" viewBox="0 0 340 45"><path opacity=".08" d="M186.971 103.239c0-49.132-39.83-88.961-88.962-88.961h-9.048C39.83 14.278 0 54.108 0 103.239c0 49.132 39.83 88.962 88.961 88.962h9.048c49.132 0 88.962-39.83 88.962-88.962Z" fill="#E50505"/><path opacity=".08" d="M339.998 104.612c0-48.98-39.706-88.687-88.687-88.687h-9.597c-48.98 0-88.687 39.707-88.687 88.687 0 48.981 39.707 88.687 88.687 88.687h9.597c48.981 0 88.687-39.706 88.687-88.687Z" fill="#E50505"/><path d="M281.318 105c0-57.99-47.01-105-105-105h-10c-57.99 0-105 47.01-105 105s47.01 105 105 105h10c57.99 0 105-47.01 105-105Z" fill="#E50505"/></svg>