<svg fill="none" xmlns="http://www.w3.org/2000/svg" viewBox="0 0 700 29"><g clip-path="url(#a)" fill="#E50505"><path opacity=".08" d="M385 197.5C385 91.185 298.815 5 192.5 5S0 91.185 0 197.5 86.185 390 192.5 390 385 303.815 385 197.5Z"/><path opacity=".08" d="M700 198C700 91.41 613.591 5 507 5S314 91.41 314 198c0 106.591 86.409 193 193 193s193-86.409 193-193Z"/><path d="M546 198C546 88.648 457.352 0 348 0S150 88.648 150 198s88.648 198 198 198 198-88.648 198-198Z"/></g><defs><clipPath id="a"><path fill="#fff" d="M0 0h700v29H0z"/></clipPath></defs></svg>