<svg fill="none" xmlns="http://www.w3.org/2000/svg" viewBox="0 0 700 29"><g clip-path="url(#a)" fill="#E50505"><path opacity=".08" d="M315-168.5C315-62.185 401.185 24 507.5 24S700-62.185 700-168.5 613.815-361 507.5-361 315-274.815 315-168.5Z"/><path opacity=".08" d="M0-169C0-62.41 86.409 24 193 24s193-86.409 193-193-86.409-193-193-193C86.41-362 0-275.591 0-169Z"/><path d="M154-169c0 109.352 88.648 198 198 198s198-88.648 198-198-88.648-198-198-198-198 88.648-198 198Z"/></g><defs><clipPath id="a"><path fill="#fff" d="M700 29H0V0h700z"/></clipPath></defs></svg>