<svg xmlns="http://www.w3.org/2000/svg" width="107" height="44" fill="none"><path fill="#750000" d="m13.92 5.751 5.783 6.098 5.54-6.063-4.952-5.44H18.11l-4.19 5.405Z"/><path fill="#212021" d="M.554 9.701h11.15l19.322 26.677L25.52 44 .554 9.701Z"/><path fill="#E50505" d="M.554 9.008h11.115L20.222.347H9.038L.554 9.008Z"/><path fill="#750000" d="M20.36 12.092h10.666l6.025-6.548-5.16-4.85-.865-.347L20.36 12.092Z"/><path fill="#E50505" d="m26.005 27.994 5.54 7.657L50.383 9.7H39.302L26.005 27.994ZM50.14 9.008H39.026l-8-8.661h11.185l7.93 8.661Z"/><path fill="#212021" d="M68.979 12.057a5.998 5.998 0 0 1-2.216-.416 5.868 5.868 0 0 1-1.836-1.143c-.52-.486-.97-1.074-1.246-1.698-.312-.658-.45-1.317-.45-2.079 0-.762.138-1.42.45-2.079a5.528 5.528 0 0 1 1.246-1.697A5.867 5.867 0 0 1 66.762 1.8a5.866 5.866 0 0 1 2.217-.415c.623 0 1.212.069 1.8.242.589.173 1.074.381 1.455.659L71.09 4.642c-.208-.173-.52-.311-.866-.415a3.652 3.652 0 0 0-1.073-.139c-.416 0-.797.07-1.177.208-.347.139-.693.312-.935.554a2.39 2.39 0 0 0-.624.832 2.548 2.548 0 0 0-.242 1.04c0 .38.07.727.242 1.039.139.311.381.589.624.831a3.182 3.182 0 0 0 2.112.762c.346 0 .727-.034 1.073-.138a2.87 2.87 0 0 0 .866-.416l1.143 2.356c-.381.242-.831.45-1.42.658a6.515 6.515 0 0 1-1.835.243Zm4.986-.208V1.559H76.7v7.9h3.325v2.39h-6.06Zm7.687 0V1.559h2.736v10.29h-2.736Zm10.423.208a5.997 5.997 0 0 1-2.216-.416 5.866 5.866 0 0 1-1.835-1.143c-.52-.486-.97-1.074-1.247-1.698a4.687 4.687 0 0 1-.45-2.079c0-.762.139-1.42.45-2.079a5.528 5.528 0 0 1 1.247-1.697A5.864 5.864 0 0 1 89.859 1.8a5.865 5.865 0 0 1 2.216-.415c.624 0 1.212.069 1.801.242s1.073.381 1.454.659l-1.142 2.355c-.208-.173-.52-.311-.866-.415a3.652 3.652 0 0 0-1.073-.139c-.416 0-.797.07-1.178.208-.346.139-.692.312-.935.554a2.39 2.39 0 0 0-.623.832 2.548 2.548 0 0 0-.243 1.04c0 .38.07.727.243 1.039.138.311.38.589.623.831a3.18 3.18 0 0 0 2.113.762c.346 0 .727-.034 1.073-.138.346-.104.623-.243.866-.416l1.142 2.356c-.38.242-.83.45-1.42.658a6.514 6.514 0 0 1-1.835.243Zm4.952-.208V1.559h2.736v4.019l3.22-4.019h3.325l-3.983 4.85L107 11.85h-3.774l-3.428-4.123v4.123h-2.77ZM56.755 27.102v-4.677l-3.878-5.613h3.29l1.939 2.841 1.939-2.841h3.29l-3.879 5.613v4.677h-2.7Zm12.258.208a4.849 4.849 0 0 1-2.008-.416 5.48 5.48 0 0 1-1.662-1.143c-.485-.486-.831-1.04-1.108-1.698a5.303 5.303 0 0 1-.416-2.079c0-.727.139-1.42.416-2.079.277-.658.623-1.212 1.108-1.697a5.48 5.48 0 0 1 1.662-1.144 4.967 4.967 0 0 1 2.008-.415c.693 0 1.386.138 2.009.415a5.48 5.48 0 0 1 1.662 1.144c.485.485.831 1.04 1.108 1.697.277.659.416 1.352.416 2.08 0 .727-.139 1.42-.416 2.078-.277.658-.623 1.212-1.108 1.697a5.48 5.48 0 0 1-1.662 1.144 4.849 4.849 0 0 1-2.009.416Zm0-2.633c.347 0 .658-.07.9-.174.278-.138.52-.312.693-.554a2.29 2.29 0 0 0 .45-.866 3.72 3.72 0 0 0 .174-1.109c0-.416-.07-.762-.173-1.109a2.29 2.29 0 0 0-.45-.866 2.131 2.131 0 0 0-.693-.554c-.277-.139-.589-.173-.9-.173-.347 0-.658.069-.9.173-.278.139-.52.312-.693.554-.208.243-.347.52-.45.866a3.72 3.72 0 0 0-.174 1.11c0 .415.07.761.174 1.108.103.346.242.623.45.866.207.242.415.416.692.554.243.104.554.174.9.174Zm11.255 2.633c-1.35 0-2.39-.312-3.117-.97-.692-.659-1.039-1.594-1.039-2.876v-6.652h2.736v5.82c0 .728.104 1.248.312 1.525.207.277.554.416 1.108.416s.9-.139 1.108-.416c.207-.277.311-.797.311-1.524v-5.821h2.736v6.652c0 1.247-.346 2.217-1.039 2.876-.727.658-1.766.97-3.116.97Zm6.89-.208v-10.29h4.052c.727 0 1.35.139 1.904.381.52.243.935.624 1.247 1.109.311.485.45 1.074.45 1.767 0 .485-.07.935-.243 1.35-.138.417-.38.763-.657 1.075-.277.312-.658.554-1.074.727l3.324 3.915H92.7l-2.77-3.568v3.534h-2.77Zm2.77-5.82h.416c.346 0 .658-.035.866-.14a.864.864 0 0 0 .52-.38c.103-.174.172-.381.172-.624 0-.381-.138-.658-.415-.866-.277-.208-.658-.277-1.178-.277h-.415v2.286h.034Zm-44.08 21.401v-10.29h6.094v2.391h-3.324v1.525h3.186v2.39h-3.186v1.56h3.324v2.39h-6.094v.034Zm11.704 0-4.328-10.29h3.082l2.285 6.167 2.285-6.166h3.082l-4.328 10.29h-2.078Zm7.895 0v-10.29h6.095v2.391h-3.325v1.525h3.186v2.39h-3.186v1.56h3.325v2.39h-6.095v.034Zm8.864 0v-10.29h2.736l3.705 5.752v-5.751h2.736v10.29h-2.736l-3.705-5.752v5.751h-2.736Zm12.467 0v-7.899h-2.25v-2.39h7.237v2.39h-2.251v7.9h-2.736Z"/></svg>