<svg width="19" height="19" fill="none" xmlns="http://www.w3.org/2000/svg" viewBox="0 0 19 20">
  <path d="M15.332 1.963h-.709v-.717a.742.742 0 1 0-1.484 0v.717H5.861v-.717a.742.742 0 1 0-1.484 0v.717h-.709A3.672 3.672 0 0 0 0 5.632v10.196a3.672 3.672 0 0 0 3.668 3.668h11.664A3.672 3.672 0 0 0 19 15.828V5.632a3.672 3.672 0 0 0-3.668-3.669ZM3.668 3.447h.709v1.447a.742.742 0 1 0 1.484 0V3.447h7.278v1.447a.742.742 0 0 0 1.484 0V3.447h.709c1.204 0 2.184.98 2.184 2.185v.708H1.484v-.708c0-1.205.98-2.185 2.184-2.185Zm11.664 14.565H3.668a2.187 2.187 0 0 1-2.184-2.184V7.824h16.032v8.004c0 1.204-.98 2.184-2.184 2.184Zm-8.742-7.27c0 .41-.332.742-.742.742H4.39a.742.742 0 1 1 0-1.484h1.46c.409 0 .741.332.741.742Zm8.762 0c0 .41-.332.742-.741.742h-1.46a.742.742 0 0 1 0-1.484h1.46c.41 0 .741.332.741.742Zm-4.385 0c0 .41-.332.742-.742.742H8.766a.742.742 0 1 1 0-1.484h1.46c.409 0 .741.332.741.742ZM6.59 15.119c0 .41-.332.742-.742.742H4.39a.742.742 0 1 1 0-1.484h1.46c.409 0 .741.332.741.742Zm8.762 0c0 .41-.332.742-.741.742h-1.46a.742.742 0 1 1 0-1.484h1.46c.41 0 .741.332.741.742Zm-4.385 0c0 .41-.332.742-.742.742H8.766a.742.742 0 1 1 0-1.484h1.46c.409 0 .741.332.741.742Z" fill="#fff"/>
</svg>