<svg width="78" height="70" fill="none" xmlns="http://www.w3.org/2000/svg">
  <path d="M64.506.29h-50.7C6.318.29 0 6.608 0 14.174v41.652C0 63.392 6.318 69.71 13.884 69.71h50.31c7.488 0 13.884-6.318 13.884-13.884V14.174C78.39 6.608 72.072.29 64.506.29Zm5.538 55.926c0 3.198-2.34 5.928-5.538 5.928h-50.7c-3.198 0-5.928-2.808-5.928-5.928V14.174c0-3.198 2.808-5.928 5.928-5.928h50.31c3.198 0 5.928 2.808 5.928 5.928v42.042Z" fill="#E1E1E1"/>
  <path d="M57.408 13.784c-1.56 0-3.197.78-4.367 1.95s-1.56 2.418-1.56 3.978c0 3.198 2.807 5.928 5.927 5.928 3.12 0 5.928-2.808 5.928-5.928s-2.807-5.928-5.928-5.928ZM52.651 30.008c-1.17-2.808-5.148-3.198-7.098-.78l-5.148 7.566c-1.56 2.418-5.148 2.418-6.708 0l-1.56-1.95c-1.56-2.418-5.148-1.95-6.708.39l-8.814 13.884c-1.56 2.808 0 6.318 3.588 6.318h37.206c2.808 0 4.758-3.198 3.588-5.928l-8.346-19.5Z" fill="#E1E1E1"/>
</svg>