<svg width="62" height="58" fill="none"  xmlns="http://www.w3.org/2000/svg">
  <path d="M52.313.18H9.687C4.346.18 0 4.525 0 9.867v33.906c0 5.342 4.346 9.688 9.688 9.688h23.007a2.422 2.422 0 0 0 1.916-3.904l-6.335-8.187 17.558-22.333 11.322 13.508v4.084a2.422 2.422 0 1 0 4.844 0V9.867C62 4.525 57.654.18 52.312.18ZM47.63 13.64a2.42 2.42 0 0 0-3.76.06l-18.65 23.72-6.352-8.207a2.421 2.421 0 0 0-1.915-.94h-.003c-.75.001-1.459.35-1.916.945l-5.33 6.93a2.422 2.422 0 0 0 3.839 2.953l3.416-4.44 10.8 13.956H9.687a4.85 4.85 0 0 1-4.843-4.844V9.867a4.85 4.85 0 0 1 4.843-4.844h42.626a4.85 4.85 0 0 1 4.843 4.844v15.138L47.63 13.64ZM16.953 8.898c-4.006 0-7.265 3.26-7.265 7.266 0 4.007 3.259 7.266 7.265 7.266 4.007 0 7.266-3.26 7.266-7.266s-3.26-7.266-7.266-7.266Zm0 9.688a2.425 2.425 0 0 1-2.422-2.422 2.425 2.425 0 0 1 2.422-2.422 2.425 2.425 0 0 1 2.422 2.422 2.425 2.425 0 0 1-2.422 2.422ZM62 46.316a2.422 2.422 0 0 1-2.422 2.422h-6.66v6.66a2.422 2.422 0 1 1-4.844 0v-6.66h-6.66a2.422 2.422 0 1 1 0-4.843h6.66v-6.66a2.422 2.422 0 1 1 4.844 0v6.66h6.66A2.422 2.422 0 0 1 62 46.316Z" fill="#E0E0E0"/>
</svg>