<svg width="24" height="24" fill="none" xmlns="http://www.w3.org/2000/svg">
  <path fill-rule="evenodd" clip-rule="evenodd" d="M17 3H7a4 4 0 0 0-4 4v10a4 4 0 0 0 4 4h10a4 4 0 0 0 4-4V7a4 4 0 0 0-4-4zm2 9.586V7a2 2 0 0 0-2-2H7a2 2 0 0 0-2 2v5.586l2.307-2.307c1.266-1.218 2.941-1.264 4.25-.123l.15.137L14 12.586l.307-.307c1.266-1.218 2.941-1.264 4.25-.123l.15.137.293.293zm-5.698 2.13 1.99 1.991.095.083a1 1 0 0 0 1.32-1.497L15.414 14l.293-.293.106-.095c.492-.41.989-.377 1.494.109L19 15.414V17a2 2 0 0 1-2 2H7a2 2 0 0 1-2-2v-1.586l3.707-3.707.106-.095c.492-.41.989-.377 1.494.109l2.977 2.977a.726.726 0 0 0 .018.018zM16.01 8a1 1 0 0 0-1-1l-.127.007A1 1 0 0 0 15 9l.127-.007A1 1 0 0 0 16.01 8z" fill="currentColor"/>
</svg>