<svg fill="none" xmlns="http://www.w3.org/2000/svg" viewBox="0 0 50 50">
  <g clip-path="url(#a)" fill="#E3E3E3">
    <path d="M14.583 14.583a4.167 4.167 0 1 1-8.333 0 4.167 4.167 0 0 1 8.333 0Z"/>
    <path d="M19.792 36.458c0-8.12 5.841-14.893 13.541-16.362V6.25A6.258 6.258 0 0 0 27.083 0H6.25A6.258 6.258 0 0 0 0 6.25v29.167a6.258 6.258 0 0 0 6.25 6.25h14.387a16.577 16.577 0 0 1-.845-5.209ZM9.875 25.375C8.5 24 6.083 24 4.708 25.375l-.541.54V6.25c0-1.15.933-2.083 2.083-2.083h20.833c1.15 0 2.084.933 2.084 2.083v13.415l-1.584-1.584a3.656 3.656 0 0 0-5.166 0L12.5 27.998l-2.625-2.623Z"/>
    <path d="M46.035 26.883a13.461 13.461 0 0 0-9.576-3.966 13.46 13.46 0 0 0-9.575 3.966 13.448 13.448 0 0 0-3.966 9.575c0 3.617 1.41 7.017 3.966 9.575A13.448 13.448 0 0 0 36.46 50c3.617 0 7.017-1.408 9.576-3.967A13.453 13.453 0 0 0 50 36.458a13.46 13.46 0 0 0-3.966-9.575Zm-4.053 12.152a2.08 2.08 0 0 1 0 2.946c-.406.406-.94.61-1.473.61a2.078 2.078 0 0 1-1.472-.61l-2.578-2.577-2.576 2.577c-.407.406-.94.61-1.473.61a2.081 2.081 0 0 1-1.473-3.556l2.577-2.577-2.578-2.577a2.081 2.081 0 0 1 0-2.946 2.082 2.082 0 0 1 2.947 0l2.576 2.578 2.578-2.578a2.081 2.081 0 0 1 2.945 0 2.08 2.08 0 0 1 0 2.946l-2.576 2.577 2.576 2.577Z"/>
  </g>
  <defs>
    <clipPath id="a">
      <path fill="#fff" d="M0 0h50v50H0z"/>
    </clipPath>
  </defs>
</svg>