<svg xmlns="http://www.w3.org/2000/svg" width="30" height="30" fill="none"><path fill="#000" d="M5.625 6.797a1.172 1.172 0 1 0 0-2.344 1.172 1.172 0 0 0 0 2.344ZM5.625 25.547a1.172 1.172 0 1 0 0-2.344 1.172 1.172 0 0 0 0 2.344ZM24.375 6.797a1.172 1.172 0 1 0 0-2.344 1.172 1.172 0 0 0 0 2.344ZM24.375 25.547a1.172 1.172 0 1 0 0-2.344 1.172 1.172 0 0 0 0 2.344ZM12.656 16.172a1.172 1.172 0 1 0 0-2.344 1.172 1.172 0 0 0 0 2.344Z"/><path fill="#000" d="M24.14 30H5.86A5.866 5.866 0 0 1 0 24.14V5.86C0 2.628 2.628 0 5.86 0h18.28C27.373 0 30 2.629 30 5.86v18.28c0 3.232-2.628 5.86-5.86 5.86ZM5.86 2.344a3.52 3.52 0 0 0-3.516 3.515v18.282a3.52 3.52 0 0 0 3.515 3.515h18.282a3.52 3.52 0 0 0 3.515-3.515V5.859a3.52 3.52 0 0 0-3.515-3.515H5.859Z"/><path fill="#000" d="M12.656 23.203c-4.523 0-8.203-3.68-8.203-8.203s3.68-8.203 8.203-8.203a8.217 8.217 0 0 1 7.736 5.469 1.172 1.172 0 0 1-2.21.78 5.87 5.87 0 0 0-5.526-3.905A5.866 5.866 0 0 0 6.796 15c0 3.23 2.63 5.86 5.86 5.86a5.85 5.85 0 0 0 3.015-.834 1.172 1.172 0 1 1 1.208 2.008 8.193 8.193 0 0 1-4.223 1.17Z"/><path fill="#000" d="M22.031 18.516h-4.134a1.172 1.172 0 1 1 0-2.344h4.134c.646 0 1.172-.526 1.172-1.172v-4.688a1.172 1.172 0 0 1 2.344 0V15a3.52 3.52 0 0 1-3.516 3.516Z"/></svg>