<svg viewBox="0 0 24 24" fill="none" xmlns="http://www.w3.org/2000/svg">
  <path fill-rule="evenodd" clip-rule="evenodd" d="M15 2a1 1 0 0 1 .993.883L16 3v1h1a3 3 0 0 1 2.995 2.824L20 7v4a1 1 0 0 1-1 1H4v7a1 1 0 0 0 .883.993L5 20h6.795a1 1 0 0 1 .117 1.993l-.117.007H5a3 3 0 0 1-2.995-2.824L2 19V7a3 3 0 0 1 2.824-2.995L5 4h1V3a1 1 0 0 1 1.993-.117L8 3v1h6V3a1 1 0 0 1 1-1zm3 5v3H4V7l.007-.117A1 1 0 0 1 5 6h1v1l.007.117A1 1 0 0 0 8 7V6h6v1l.007.117A1 1 0 0 0 16 7V6h1l.117.007A1 1 0 0 1 18 7zm0 6a5 5 0 1 0 0 10 5 5 0 0 0 0-10zm0 2a3 3 0 1 1 0 6 3 3 0 0 1 0-6zm.993 1.38a1 1 0 0 0-1.993.116V18l.009.131a1 1 0 0 0 .284.576l1 1 .094.083a1 1 0 0 0 1.32-.083l.083-.094a1 1 0 0 0-.083-1.32L19 17.585v-1.089l-.007-.117z" fill="#fff"/>
</svg>