<svg xmlns="http://www.w3.org/2000/svg" width="12" height="14" fill="none"><path fill="#fff" fill-rule="evenodd" d="M2.666 13.666h6.667c1.1 0 2-.9 2-2V4.309a.671.671 0 0 0-.194-.45L7.806.526a.644.644 0 0 0-.473-.194v.001H2.666c-1.107 0-2 .893-2 2v9.333c0 1.1.893 2 2 2Zm4-12h-4a.66.66 0 0 0-.667.667v9.333c0 .367.294.667.667.667h6.667c.366 0 .666-.3.666-.667V5H8c-.74 0-1.333-.6-1.333-1.334v-2Zm1.333.94v1.06h1.06L8 2.606ZM6 11a.664.664 0 0 1-.666-.667v-2.39l-.86.864V8.8a.672.672 0 0 1-.947 0 .66.66 0 0 1 0-.947l2-2a.658.658 0 0 1 .94-.006l2 2c.26.253.26.68 0 .94h-.007a.701.701 0 0 1-.473.193L8 9a.676.676 0 0 1-.474-.193l-.86-.864v2.39c0 .367-.3.667-.667.667Z" clip-rule="evenodd"/></svg>