<svg xmlns="http://www.w3.org/2000/svg" width="16" height="20" fill="none"><path fill="#E50505" fill-rule="evenodd" d="M13 20.002V20c1.65 0 3-1.35 3-3V6a1.012 1.012 0 0 0-.29-.71l-5-5A.966.966 0 0 0 10 0H3c-1.66 0-3 1.34-3 3v14c0 1.65 1.34 3 3 3h10Zm-4-18H3c-.56 0-1 .44-1 1v14c0 .55.44 1 1 1h10c.55 0 1-.45 1-1v-10h-3a2 2 0 0 1-2-2v-3Zm2 1.41v1.59h1.59L11 3.411Zm-4 9.175-1.29-1.296a.991.991 0 0 0-1.42 0 .991.991 0 0 0 0 1.42l3 3a.988.988 0 0 0 .556.279.994.994 0 0 0 .75-.187c.04-.028.078-.06.113-.093l3-3c.39-.4.39-1.03 0-1.42a.991.991 0 0 0-1.42 0L9 12.587V9c0-.56-.45-1-1-1-.56 0-1 .44-1 1v3.586Z" clip-rule="evenodd"/></svg>