<svg xmlns="http://www.w3.org/2000/svg" width="16" height="16" fill="none"><path fill="currentColor" fill-rule="evenodd" d="M12.846 3.12a1.193 1.193 0 0 0-1.067-.167 5.02 5.02 0 0 1-1.446.187 5.693 5.693 0 0 1-2.087-.52A6.767 6.767 0 0 0 5.666 2c-1.927 0-2.667.667-2.8.76a.667.667 0 0 0-.2.48v10.093a.667.667 0 1 0 1.333 0v-2.866a4.187 4.187 0 0 1 1.667-.274c.722.04 1.43.216 2.087.52.81.375 1.687.586 2.58.62.803.03 1.603-.13 2.333-.466.402-.189.66-.59.667-1.034v-5.76a1.18 1.18 0 0 0-.487-.953z" clip-rule="evenodd"/></svg>
