<svg xmlns="http://www.w3.org/2000/svg" width="30" height="30" fill="none"><g clip-path="url(#a)"><path fill="#000" d="M23.136 18.547c.582-.85 1.069-2.253.08-4.11-.573-1.076-1.48-2.018-2.208-2.775-.173-.18-.339-.353-.482-.51l4.78-4.78c.058.014.116.026.175.036l.045.007a2.292 2.292 0 0 0 1.989-.645l1.988-1.994a1.684 1.684 0 0 0 0-2.375l-.905-.908a1.671 1.671 0 0 0-2.368 0l-2.008 2.012a2.307 2.307 0 0 0-.593 2.23l-4.76 4.76a29.586 29.586 0 0 1-.53-.503c-.758-.729-1.7-1.635-2.775-2.207-1.857-.989-3.26-.503-4.11.078-1.276.873-1.558 2.1-1.764 2.998-.106.459-.197.855-.371 1.022l-.017.017c-.903.903-1.968 1.163-3.202 1.465-1.357.33-2.895.706-4.228 2.04C.64 15.634-.007 17.14 0 18.76c.014 3.361 1.045 6.09 3.065 8.11C5.634 29.44 8.928 29.99 11.24 30h.024c1.61 0 3.107-.647 4.331-1.871 1.06-1.06 1.49-2.199 1.748-3.073a1.172 1.172 0 0 0-2.248-.661c-.272.926-.607 1.528-1.157 2.077-.786.786-1.685 1.185-2.674 1.185h-.015c-1.871-.008-4.522-.438-6.527-2.443-1.59-1.59-2.367-3.703-2.379-6.463-.004-.995.395-1.9 1.185-2.69.87-.869 1.916-1.124 3.128-1.42 1.373-.335 2.93-.715 4.296-2.077.67-.65.856-1.461 1.021-2.178.181-.787.308-1.249.805-1.588.97-.666 2.133.148 3.936 1.883.172.165.338.324.498.472l-1.932 1.932a3.49 3.49 0 0 0-1.572-.373 3.519 3.519 0 0 0-3.515 3.515 3.519 3.519 0 0 0 3.515 3.515 3.519 3.519 0 0 0 3.515-3.515c0-.519-.114-1.011-.317-1.455l1.962-1.961c.142.153.293.31.452.475 1.734 1.803 2.548 2.965 1.882 3.937-.34.497-.8.623-1.588.804-.72.165-1.535.353-2.186 1.03a1.171 1.171 0 1 0 1.688 1.625c.168-.175.564-.266 1.023-.371.897-.207 2.125-.49 2.997-1.764Zm-9.428-1.148a1.173 1.173 0 0 1 0-2.343c.646 0 1.172.525 1.172 1.171s-.526 1.172-1.172 1.172Zm-5.843 1.229 3.457 3.515a1.172 1.172 0 0 1-1.671 1.643L6.194 20.27a1.172 1.172 0 1 1 1.671-1.643ZM0 8.495a2.519 2.519 0 0 1 2.695-2.512V3.048c0-1.26.896-2.36 2.13-2.616.06-.012.121-.02.183-.023C6.032.362 6.567.205 6.918.074a1.172 1.172 0 0 1 .819 2.196c-.729.271-1.502.419-2.492.473a.33.33 0 0 0-.207.305V7.91c0 .082-.008.162-.024.238A2.52 2.52 0 1 1 0 8.494ZM29.236 21.25c-.728.271-1.501.419-2.492.474a.33.33 0 0 0-.207.304v4.863c0 .081-.008.16-.024.238a2.519 2.519 0 1 1-2.319-2.166v-2.935c0-1.26.896-2.36 2.13-2.615.06-.013.121-.02.183-.023 1.024-.048 1.559-.204 1.91-.336a1.172 1.172 0 0 1 .819 2.196Z"/></g><defs><clipPath id="a"><path fill="#fff" d="M0 0h30v30H0z"/></clipPath></defs></svg>