<svg width="20" height="22" fill="none" xmlns="http://www.w3.org/2000/svg">
  <path fill-rule="evenodd" clip-rule="evenodd" d="M3.45 1.107C4.085.847 4.813.67 5.877.618 6.944.566 7.285.554 10.001.554c2.716 0 3.057.013 4.123.064 1.064.05 1.791.229 2.428.49a4.876 4.876 0 0 1 1.77 1.213 5.211 5.211 0 0 1 1.154 1.865c.247.668.416 1.434.464 2.554.049 1.123.06 1.481.06 4.34 0 2.858-.011 3.216-.06 4.34-.047 1.12-.217 1.885-.464 2.554a5.193 5.193 0 0 1-1.154 1.864 4.9 4.9 0 0 1-1.771 1.214c-.636.26-1.363.438-2.428.49-1.066.051-1.407.063-4.123.063-2.715 0-3.056-.013-4.123-.064-1.064-.05-1.79-.228-2.427-.489a4.899 4.899 0 0 1-1.771-1.214 5.18 5.18 0 0 1-1.154-1.864c-.247-.67-.416-1.434-.464-2.555C.01 14.297 0 13.94 0 11.08 0 8.222.011 7.864.06 6.74.11 5.62.279 4.855.526 4.186A5.178 5.178 0 0 1 1.68 2.32 4.887 4.887 0 0 1 3.45 1.107ZM10 6.617c-2.282 0-4.2 1.96-4.2 4.463s1.918 4.462 4.2 4.462c2.281 0 4.2-1.959 4.2-4.462 0-2.504-1.919-4.463-4.2-4.463ZM4.2 11.08c0-3.309 2.558-6.063 5.8-6.063 3.24 0 5.8 2.754 5.8 6.063 0 3.309-2.56 6.062-5.8 6.062-3.242 0-5.8-2.754-5.8-6.062Zm12.05-5.63a1.25 1.25 0 1 0 0-2.5 1.25 1.25 0 0 0 0 2.5Z" fill="#fff"/>
</svg>