<svg width="19" height="20" fill="none" xmlns="http://www.w3.org/2000/svg">
  <path d="M0 2.755c0-.638.214-1.164.642-1.579C1.07.762 1.626.554 2.31.554c.672 0 1.216.205 1.632.613.428.42.642.97.642 1.646 0 .612-.208 1.122-.624 1.53-.428.422-.99.632-1.687.632h-.018c-.673 0-1.217-.21-1.632-.631C.208 3.923 0 3.394 0 2.755ZM.238 19.5V6.717H4.31V19.5H.238Zm6.328 0h4.071v-7.138c0-.447.049-.791.147-1.034.17-.433.43-.8.78-1.1.348-.3.785-.45 1.31-.45 1.37 0 2.055.964 2.055 2.89V19.5H19v-7.33c0-1.888-.428-3.32-1.284-4.296-.856-.976-1.987-1.464-3.393-1.464-1.577 0-2.806.708-3.686 2.125v.038h-.018l.018-.038V6.717H6.566c.024.408.036 1.677.036 3.808 0 2.13-.012 5.122-.036 8.975Z" fill="#fff"/>
</svg>