<svg viewBox="0 0 24 24" fill="none" xmlns="http://www.w3.org/2000/svg">
  <g clip-path="url(#a)">
    <path d="M23.062 22.125c-2.23 0-3.234-1.354-4.206-2.664-.6-.808-1.167-1.572-1.991-1.975-1.2-.586-2.44-.625-3.791-.119-1.107.415-2.167 1.141-3.29 1.91-2.044 1.4-4.156 2.848-6.972 2.848a.938.938 0 0 1-.937-.938c0-.769.802-1.543 1.387-1.984a2.345 2.345 0 0 0 2.682-.07L9.65 16.4a.938.938 0 0 0-1.113-1.51L4.83 17.625a.468.468 0 0 1-.64-.08l-.237-.288a.47.47 0 0 1 .044-.64l8.034-7.458 1.59 1.98-1.57 1.158a.938.938 0 0 0 1.114 1.509l2.128-1.57h4.3a.931.931 0 0 0 .333-.062C22.363 11.246 24 8.878 24 6.281a6.288 6.288 0 0 0-6.281-6.28A6.283 6.283 0 0 0 12.362 3l-.009.014-.018.033-.017.03a.915.915 0 0 0-.032.071l-.011.03a1.246 1.246 0 0 0-.017.05l-.01.032-.006.025-.956 4.007-2.495 2.316-.264-.317a.938.938 0 0 0-1.441 1.2l.329.395-4.693 4.355a2.348 2.348 0 0 0-.618 2.489 7.555 7.555 0 0 0-.667.566C.497 19.198 0 20.198 0 21.188A2.816 2.816 0 0 0 2.813 24c3.395 0 5.965-1.76 8.03-3.176 2.283-1.563 3.65-2.41 5.198-1.653.415.202.85.788 1.309 1.407C18.421 22.022 19.889 24 23.062 24a.937.937 0 1 0 0-1.875zM17.636 10.36h-2.144l-2.339-2.813.478-2.004 4.005 4.817zm.083-8.485a4.411 4.411 0 0 1 4.406 4.406 4.46 4.46 0 0 1-2.244 3.846l-5.546-6.67a4.373 4.373 0 0 1 3.384-1.582zM0 6.797a2.016 2.016 0 0 1 2.156-2.01V2.439C2.156 1.43 2.873.55 3.86.346a.916.916 0 0 1 .147-.019C4.827.29 5.254.164 5.535.06a.937.937 0 0 1 .655 1.757c-.582.217-1.2.335-1.994.38a.264.264 0 0 0-.165.243v3.89a.946.946 0 0 1-.02.191A2.016 2.016 0 1 1 0 6.797z" fill="#fff"/>
  </g>
  <defs>
    <clipPath id="a">
      <path fill="#fff" d="M0 0h24v24H0z"/>
    </clipPath>
  </defs>
</svg>