<svg xmlns="http://www.w3.org/2000/svg" width="30" height="30" fill="none"><g clip-path="url(#a)"><path fill="#000" d="M28.828 27.656c-2.788 0-4.043-1.692-5.258-3.33-.75-1.01-1.458-1.965-2.49-2.469-1.498-.732-3.048-.78-4.738-.148-1.383.518-2.708 1.426-4.112 2.388-2.554 1.75-5.196 3.56-8.714 3.56a1.173 1.173 0 0 1-1.172-1.173c0-.961 1.002-1.929 1.734-2.48a2.93 2.93 0 0 0 3.352-.088l4.633-3.418a1.172 1.172 0 0 0-1.392-1.886L6.04 22.03a.585.585 0 0 1-.801-.1l-.296-.36a.587.587 0 0 1 .055-.8l10.043-9.322 1.988 2.474-1.962 1.448a1.172 1.172 0 0 0 1.391 1.886l2.66-1.963h5.375c.142 0 .284-.026.417-.077 3.045-1.158 5.09-4.118 5.09-7.364C30 3.522 26.479 0 22.15 0c-1.371 0-2.721.36-3.904 1.038a7.9 7.9 0 0 0-2.792 2.712l-.012.018-.022.04-.022.04a1.144 1.144 0 0 0-.04.087l-.014.038c-.007.02-.015.04-.021.061l-.011.04-.01.033-1.193 5.008-3.12 2.895-.329-.396a1.172 1.172 0 0 0-1.802 1.499l.411.494-5.865 5.445a2.935 2.935 0 0 0-.773 3.11c-.255.193-.545.43-.834.708C.621 23.997 0 25.247 0 26.484A3.52 3.52 0 0 0 3.516 30c4.244 0 7.457-2.2 10.039-3.97 2.852-1.954 4.56-3.013 6.497-2.067.518.253 1.06.985 1.636 1.76C23.026 27.528 24.86 30 28.828 30a1.172 1.172 0 1 0 0-2.344ZM22.045 12.95h-2.68l-2.923-3.516.597-2.505 5.006 6.02Zm.103-10.606a5.514 5.514 0 0 1 5.508 5.508c0 1.992-1.099 3.83-2.805 4.806L17.92 4.322a5.467 5.467 0 0 1 4.23-1.978ZM0 8.496a2.52 2.52 0 0 1 2.695-2.512V3.049c0-1.261.896-2.361 2.13-2.617.06-.012.122-.02.184-.023C6.033.362 6.568.205 6.919.074a1.172 1.172 0 0 1 .819 2.196c-.728.272-1.501.42-2.492.474a.33.33 0 0 0-.207.304v4.864c0 .081-.008.161-.024.238A2.52 2.52 0 1 1 0 8.496Z"/></g><defs><clipPath id="a"><path fill="#fff" d="M0 0h30v30H0z"/></clipPath></defs></svg>