<svg xmlns="http://www.w3.org/2000/svg" width="30" height="30" fill="none"><path fill="#000" d="M23.218 20.022 9.976 6.78a1.172 1.172 0 0 0-1.926.417L.075 28.416a1.172 1.172 0 0 0 1.508 1.51l21.234-7.961a1.174 1.174 0 0 0 .4-1.943Zm-9.87 2.99-7.635-2.936 1.436-3.821 11.956 4.598-5.758 2.159ZM9.603 9.723l8.068 8.068-9.698-3.73 1.63-4.338ZM4.89 22.27l5.152 1.981-6.864 2.574 1.712-4.555ZM17.486 6.002a3.514 3.514 0 0 0 0-4.972 3.52 3.52 0 0 0-4.972 0 3.514 3.514 0 0 0 0 4.972 3.52 3.52 0 0 0 4.972 0ZM14.17 2.687a1.171 1.171 0 1 1 1.659 1.657 1.171 1.171 0 0 1-1.659-1.657ZM28.064 14.44h-1.172v-1.173a1.172 1.172 0 1 0-2.344 0v1.172h-1.172a1.172 1.172 0 0 0 0 2.344h1.172v1.172a1.172 1.172 0 1 0 2.344 0v-1.172h1.172a1.172 1.172 0 0 0 0-2.344ZM23.028 11.339c.457-.458.457-1.2 0-1.658a1.171 1.171 0 1 1 1.657-1.657 1.172 1.172 0 1 0 1.657-1.657A1.171 1.171 0 1 1 28 4.709a1.172 1.172 0 1 0 1.658-1.657 3.52 3.52 0 0 0-4.972 0 3.49 3.49 0 0 0-1.024 2.29 3.49 3.49 0 0 0-2.29 1.025 3.493 3.493 0 0 0-1.03 2.486c0 .939.365 1.822 1.03 2.486.457.457 1.199.457 1.657 0ZM22.031 2.344a1.172 1.172 0 1 0 0-2.344 1.172 1.172 0 0 0 0 2.344ZM28.828 11.484a1.172 1.172 0 1 0 0-2.343 1.172 1.172 0 0 0 0 2.343ZM17.344 11.484a1.172 1.172 0 1 0 0-2.343 1.172 1.172 0 0 0 0 2.343Z"/></svg>