<svg width="17" height="17" fill="#A6A6A6" xmlns="http://www.w3.org/2000/svg">
  <g clip-path="url(#a)">
    <path d="M.035 16.35a.5.5 0 0 0 .478.633.466.466 0 0 0 .136-.02L5.29 15.64l-3.932-3.931L.034 16.35Z"/>
    <path d="M.512 17a.51.51 0 0 1-.491-.654l1.335-4.668 3.97 3.97L.653 16.98a.501.501 0 0 1-.14.02Zm.857-5.263L.051 16.352a.48.48 0 0 0 .594.591l4.615-1.318-3.891-3.888Zm15.177-9.174L14.438.455a1.495 1.495 0 0 0-2.115-.003l-1.056 1.055 4.22 4.22 1.056-1.055c.282-.283.434-.658.434-1.056a1.47 1.47 0 0 0-.431-1.053Z"/>
    <path d="m15.49 5.75-4.243-4.243L12.313.442A1.497 1.497 0 0 1 13.379 0c.405 0 .783.156 1.066.442l2.108 2.108a1.5 1.5 0 0 1 .441 1.066c0 .405-.156.783-.441 1.066L15.49 5.75Zm-4.197-4.243 4.198 4.197 1.042-1.042c.279-.28.432-.648.432-1.043 0-.395-.153-.764-.432-1.042L14.425.465a1.47 1.47 0 0 0-1.046-.432c-.395 0-.764.153-1.043.432l-1.043 1.042Zm-9.374 9.351 8.647-8.647 4.221 4.221L6.14 15.08l-4.22-4.222Z"/>
    <path d="m6.14 15.104-4.246-4.247 8.672-8.669 4.244 4.243-8.67 8.673Zm-4.197-4.247 4.197 4.197 8.623-8.623-4.197-4.196-8.623 8.622Z"/>
  </g>
  <defs>
    <clipPath id="a">
      <path fill="#fff" d="M0 0h17v17H0z"/>
    </clipPath>
  </defs>
</svg>