<svg fill="none" xmlns="http://www.w3.org/2000/svg" viewBox="0 0 79 64" width="21" height="17">
  <path d="M5.542 10.435h14.28l4.963-8.968A2.613 2.613 0 0 1 27.05.161h24.816c.934 0 1.797.497 2.264 1.306l5.05 8.968h14.28a5.224 5.224 0 0 1 5.225 5.225v42.492a5.224 5.224 0 0 1-5.225 5.224H5.542a5.224 5.224 0 0 1-5.224-5.224V15.66a5.224 5.224 0 0 1 5.224-5.225Zm33.959 42.928c10.675 0 19.33-8.655 19.33-19.33 0-10.677-8.655-19.33-19.33-19.33-10.676 0-19.33 8.654-19.33 19.33.047 10.655 8.674 19.282 19.33 19.33Z" fill="#A6A6A6"/>
  <path d="M39.499 43.697a9.665 9.665 0 0 1-9.665-9.665 9.665 9.665 0 0 1 9.665-9.665c5.338 0 9.665 4.327 9.665 9.665 0 5.338-4.327 9.665-9.665 9.665Z" fill="#A6A6A6"/>
</svg>
