<svg xmlns="http://www.w3.org/2000/svg" width="32" height="24" fill="none"><path fill="#000" d="M31.529 12.598v-8.99c0-2.19-2.783-3.1-4.09-1.376a10.746 10.746 0 0 0-2.114 5.377c-1.38-3.404-4.72-5.812-8.613-5.812-3.58 0-6.692 2.035-8.243 5.01l-.254-4.162A2.447 2.447 0 0 0 5.027.469a2.477 2.477 0 0 0-1.52 0A2.447 2.447 0 0 0 .319 2.644C-.024 8.25 0 7.823 0 7.913c0 1.294.586 2.522 1.61 3.339-.338 3.325-.562 8.198-.562 8.816 0 1.984 1.42 3.582 3.219 3.582 1.805 0 3.219-1.605 3.219-3.582 0-.618-.224-5.492-.563-8.816.181-.145.35-.304.505-.476a9.391 9.391 0 0 0-.005.312c0 5.122 4.167 9.29 9.29 9.29 4.297 0 7.923-2.935 8.978-6.906.123.196.27.376.436.534-.214 2.728-.35 5.758-.35 6.203 0 1.901 1.37 3.441 3.112 3.441 1.744 0 3.111-1.542 3.111-3.44 0-.525-.188-4.634-.471-7.611ZM5.402 9.79c-.413.25-.643.718-.59 1.198.358 3.23.602 8.503.602 9.078 0 .834-.514 1.51-1.147 1.51-.634 0-1.147-.676-1.147-1.51 0-.575.243-5.848.601-9.078a1.241 1.241 0 0 0-.59-1.198 2.193 2.193 0 0 1-1.06-1.879l.315-5.14a.371.371 0 0 1 .742.04l-.204 4.124a.42.42 0 0 0 .839 0l.102-4.122a.402.402 0 0 1 .803 0l.102 4.122a.42.42 0 0 0 .84 0l-.205-4.124a.372.372 0 0 1 .742-.04l.314 5.14c0 .797-.424 1.494-1.059 1.879Zm11.31 8.514c-3.98 0-7.218-3.238-7.218-7.218s3.238-7.218 7.218-7.218 7.218 3.238 7.218 7.218-3.238 7.218-7.218 7.218Zm12.177 3.273c-.575 0-1.04-.613-1.04-1.37 0-.48.188-4.58.471-7.51h-.288a.69.69 0 0 1-.69-.69V8.681c0-1.877.614-3.703 1.748-5.198a.204.204 0 0 1 .367.123v9.09c.284 2.931.471 7.032.471 7.512 0 .756-.465 1.369-1.04 1.369Z"/></svg>