<svg width="19" height="19" viewBox="0 0 19 19" fill="none" xmlns="http://www.w3.org/2000/svg">
<path fill-rule="evenodd" clip-rule="evenodd" d="M17.9102 16.79L14.5102 13.4C15.6072 12.0024 16.2024 10.2767 16.2002 8.5C16.2002 4.08172 12.6185 0.5 8.2002 0.5C3.78192 0.5 0.200195 4.08172 0.200195 8.5C0.200195 12.9183 3.78192 16.5 8.2002 16.5C9.97686 16.5022 11.7026 15.907 13.1002 14.81L16.4902 18.21C16.8791 18.6021 17.5123 18.6047 17.9044 18.2158C17.9063 18.2139 17.9083 18.2119 17.9102 18.21V18.21C18.3023 17.8211 18.3049 17.1879 17.916 16.7958C17.9141 16.7939 17.9121 16.7919 17.9102 16.79L17.9102 16.79ZM2.2002 8.5V8.5C2.20019 5.18629 4.88649 2.5 8.2002 2.5C11.5139 2.5 14.2002 5.18629 14.2002 8.5C14.2002 11.8137 11.5139 14.5 8.2002 14.5C4.88649 14.5 2.2002 11.8137 2.2002 8.5L2.2002 8.5Z" fill="white"/>
</svg>
