<svg width="12" height="12" fill="none" xmlns="http://www.w3.org/2000/svg">
  <path d="m11.718 4.634-.923-.2a5.017 5.017 0 0 0-.296-.717l.51-.794a.359.359 0 0 0-.048-.447L9.524 1.039A.359.359 0 0 0 9.077.99l-.794.51a5.02 5.02 0 0 0-.716-.296l-.2-.923A.359.359 0 0 0 7.015 0H4.984a.359.359 0 0 0-.35.282l-.2.923a5.02 5.02 0 0 0-.717.296l-.794-.51a.359.359 0 0 0-.447.048L1.039 2.476a.359.359 0 0 0-.048.447l.51.794a5.02 5.02 0 0 0-.296.716l-.923.2A.359.359 0 0 0 0 4.985v2.032c0 .169.118.314.282.35l.923.2c.08.246.18.486.296.717l-.51.794a.359.359 0 0 0 .048.447l1.437 1.437c.119.12.305.14.447.048l.794-.51c.231.117.47.216.716.296l.2.923a.359.359 0 0 0 .351.282h2.032a.359.359 0 0 0 .35-.282l.2-.923c.246-.08.486-.18.717-.296l.794.51a.358.358 0 0 0 .447-.048l1.437-1.437c.12-.119.14-.305.048-.447l-.51-.794c.117-.231.216-.47.296-.716l.923-.2A.359.359 0 0 0 12 7.015V4.984a.359.359 0 0 0-.282-.35ZM8.15 6A2.154 2.154 0 0 1 6 8.151 2.154 2.154 0 0 1 3.849 6c0-1.186.965-2.151 2.151-2.151S8.151 4.814 8.151 6Z" fill="#222"/>
</svg>