<svg xmlns="http://www.w3.org/2000/svg" width="16" height="16" fill="none"><path fill="#fff" fill-rule="evenodd" d="M8.627 14.667h-1.26a1.12 1.12 0 0 1-1.12-1.12v-.726a.227.227 0 0 0-.146-.194.253.253 0 0 0-.274 0l-.493.534a1.113 1.113 0 0 1-1.574.005l-.006-.005-.913-.894a1.106 1.106 0 0 1-.334-.793c0-.302.12-.592.334-.807l.493-.493a.227.227 0 0 0 0-.247c-.04-.1-.107-.173-.2-.173h-.68a1.127 1.127 0 0 1-1.12-1.127v-1.26c0-.618.501-1.12 1.12-1.12h.727a.227.227 0 0 0 .193-.146.253.253 0 0 0 0-.274l-.533-.493a1.113 1.113 0 0 1-.006-1.574l.006-.006.893-.913a1.1 1.1 0 0 1 .787-.334c.304-.001.597.119.813.334l.493.493a.227.227 0 0 0 .247 0c.1-.04.173-.107.173-.2v-.68c.004-.62.507-1.12 1.127-1.12h1.293c.619 0 1.12.501 1.12 1.12v.727a.227.227 0 0 0 .147.193c.083.053.19.053.273 0l.46-.533a1.113 1.113 0 0 1 1.575-.006l.005.006.914.893c.213.21.333.495.333.793.007.304-.114.596-.333.807l-.494.493a.227.227 0 0 0 0 .247c.04.1.107.173.2.173h.727a1.127 1.127 0 0 1 1.073 1.127v1.293a1.12 1.12 0 0 1-1.12 1.12h-.726a.227.227 0 0 0-.194.147.227.227 0 0 0 0 .247l.514.513c.436.433.438 1.138.005 1.574l-.005.006-.874.887a1.1 1.1 0 0 1-.786.333 1.147 1.147 0 0 1-.794-.333l-.513-.494a.227.227 0 0 0-.247 0c-.1.04-.173.107-.173.2v.727a1.127 1.127 0 0 1-1.127 1.073zm-1.046-1.333h.84v-.513c.005-.63.39-1.192.973-1.427a1.573 1.573 0 0 1 1.727.313l.36.36.586-.586-.36-.367a1.56 1.56 0 0 1-.32-1.707c.237-.58.8-.962 1.427-.966h.52v-.86h-.513a1.553 1.553 0 0 1-1.427-.974 1.573 1.573 0 0 1 .313-1.726l.36-.36-.586-.587-.367.36a1.593 1.593 0 0 1-2.667-1.113v-.514h-.866v.514a1.553 1.553 0 0 1-.974 1.426 1.573 1.573 0 0 1-1.726-.313l-.36-.36-.587.587.36.366a1.593 1.593 0 0 1-1.113 2.667h-.514v.84h.514c.628.006 1.192.39 1.426.973a1.573 1.573 0 0 1-.313 1.727l-.36.36.587.587.366-.36a1.593 1.593 0 0 1 2.667 1.113l.027.54zm.42-3a2.333 2.333 0 1 1 0-4.667 2.333 2.333 0 0 1 0 4.667zm0-3.333a1 1 0 1 0 0 2 1 1 0 0 0 0-2z" clip-rule="evenodd"/></svg>