<svg xmlns="http://www.w3.org/2000/svg" width="18" height="20" fill="none"><path fill="#E50505" fill-rule="evenodd" d="M12.995 1.85A2 2 0 0 0 11 0H7l-.15.005A2 2 0 0 0 5 2v2H1l-.117.007A1 1 0 0 0 1 6h.08l.923 11.083.005.168C2.096 18.75 3.402 20 5 20h8l.176-.005A3 3 0 0 0 16 17l.92-11H17l.117-.007A1 1 0 0 0 17 4h-4V2l-.005-.15ZM11 4V2H7v2h4ZM6 6H3.086L4 17a1 1 0 0 0 .883.993L5 18h8c.515 0 .94-.39.997-.959l.007-.124L14.914 6H6Zm1 2a1 1 0 0 1 .993.883L8 9v6a1 1 0 0 1-1.993.117L6 15V9a1 1 0 0 1 1-1Zm4.993.883A1 1 0 0 0 10 9v6l.007.117A1 1 0 0 0 12 15V9l-.007-.117Z" clip-rule="evenodd"/></svg>