<svg width="15" height="18" viewBox="0 0 15 18" fill="none"  xmlns="http://www.w3.org/2000/svg">
<path fill-rule="evenodd" clip-rule="evenodd" d="M5.34375 2.07812C5.34375 1.91417 5.47667 1.78125 5.64062 1.78125H8.60938C8.77333 1.78125 8.90625 1.91417 8.90625 2.07812V3.5625H5.34375V2.07812ZM10.6875 2.07812V3.5625H13.3594C13.8512 3.5625 14.25 3.96125 14.25 4.45312C14.25 4.945 13.8512 5.34375 13.3594 5.34375H0.890625C0.398751 5.34375 0 4.945 0 4.45312C0 3.96125 0.398751 3.5625 0.890625 3.5625H3.5625V2.07812C3.5625 0.930409 4.49291 0 5.64062 0H8.60938C9.75709 0 10.6875 0.930409 10.6875 2.07812ZM2.96432 7.927C2.91538 7.43756 2.47894 7.08047 1.9895 7.12942C1.50006 7.17835 1.14297 7.61481 1.19192 8.10424L1.97561 15.9411C2.08184 17.0035 2.97578 17.8125 4.04341 17.8125H10.2066C11.2742 17.8125 12.1682 17.0035 12.2744 15.9411L13.0581 8.10424C13.107 7.61481 12.75 7.17835 12.2605 7.12942C11.7711 7.08047 11.3346 7.43756 11.2856 7.927L10.502 15.7639C10.4868 15.9157 10.359 16.0312 10.2066 16.0312H4.04341C3.8909 16.0312 3.76319 15.9157 3.74801 15.7639L2.96432 7.927Z" fill="#222222"/>
<path fill-rule="evenodd" clip-rule="evenodd" d="M5.98452 15.0434C5.51633 15.0778 5.10896 14.726 5.07463 14.2579L4.68703 8.97205C4.6527 8.50386 5.0044 8.09649 5.47259 8.06216C5.94077 8.02783 6.34814 8.37954 6.38247 8.84772L6.77008 14.1335C6.80441 14.6017 6.4527 15.0091 5.98452 15.0434Z" fill="#222222"/>
<path fill-rule="evenodd" clip-rule="evenodd" d="M8.47252 15.0434C8.9407 15.0778 9.34807 14.726 9.3824 14.2579L9.77 8.97205C9.80434 8.50386 9.45263 8.09649 8.98444 8.06216C8.51626 8.02783 8.10889 8.37954 8.07456 8.84772L7.68695 14.1335C7.65262 14.6017 8.00433 15.0091 8.47252 15.0434Z" fill="#222222"/>
</svg>
