<svg width="18" height="18" fill="none" xmlns="http://www.w3.org/2000/svg">
  <path d="M12.027.663V.66h.844l.308.07c.206.047.393.107.56.182.168.075.33.162.487.262.157.1.3.2.427.304.127.103.24.21.341.326.1.115.255.145.466.09.21-.057.438-.135.682-.234.243-.1.484-.212.722-.337a7.91 7.91 0 0 0 .435-.237l.081-.056.003-.006.017-.01.016-.009.016-.009.016-.01.003-.005.005-.004.005-.003.003-.006.017-.006.016-.003-.003.028-.005.028-.008.028-.009.028-.008.019-.008.018-.008.028a.7.7 0 0 0-.016.075 3.372 3.372 0 0 1-.154.374c-.098.218-.22.44-.365.663a3.156 3.156 0 0 1-.393.509 3.998 3.998 0 0 0-.232.243.727.727 0 0 1-.138.13l-.081.062-.017.01-.016.009-.003.006-.005.003-.005.004-.003.006-.016.009-.017.01-.003.005-.005.004-.005.003-.003.006-.003.006-.005.003-.005.004-.003.006h.081l.454-.112a7.3 7.3 0 0 0 .869-.271l.438-.169.049-.018.024-.01.016-.009.017-.01.016-.009.016-.01.033-.005L18 2.66v.037l-.008.004-.008.005-.004.006-.004.004-.005.003-.003.006-.004.006-.005.003-.004.004-.004.006-.003.005-.005.004-.008.019-.008.018-.005.004c-.002.004-.07.11-.206.318-.135.21-.208.315-.22.318-.01.003-.025.022-.045.056a5.14 5.14 0 0 1-.344.417c-.21.243-.417.459-.62.648a.936.936 0 0 0-.308.703c-.003.277-.016.59-.037.938-.022.35-.063.726-.122 1.131-.06.405-.152.863-.276 1.374A13.786 13.786 0 0 1 14.73 11.5a12.579 12.579 0 0 1-1.03 1.738c-.169.237-.381.504-.637.8l-.422.486c-.025.028-.131.13-.319.307-.186.178-.386.356-.6.535a6.929 6.929 0 0 1-.588.443c-.178.118-.393.253-.646.405a7.254 7.254 0 0 1-.814.426c-.293.131-.601.253-.926.365-.324.112-.638.2-.941.262a11.72 11.72 0 0 1-1.03.158l-.577.066v.01H5.145v-.01l-.138-.01a6.473 6.473 0 0 1-.227-.018c-.06-.007-.284-.04-.674-.103a8.569 8.569 0 0 1-.917-.187 11 11 0 0 1-.99-.355 8.969 8.969 0 0 1-1.125-.529c-.31-.177-.505-.29-.584-.337a4.048 4.048 0 0 1-.263-.171l-.146-.103-.003-.006-.005-.004-.005-.003-.003-.006-.016-.01-.017-.009-.003-.005-.005-.004-.005-.004-.003-.005-.003-.006-.005-.004H0v-.037l.016.004.016.005.074.01c.048.006.18.015.397.028a6.344 6.344 0 0 0 1.437-.084c.254-.044.554-.119.9-.225.347-.106.665-.232.955-.377.289-.147.494-.257.617-.33.12-.07.306-.202.555-.396l.373-.29.003-.005.005-.003.005-.004.003-.006.003-.005.005-.004.005-.004.003-.005.017-.006.016-.004.003-.019.005-.018.005-.004.003-.006-.13-.009a42.35 42.35 0 0 1-.251-.019 2.147 2.147 0 0 1-.382-.084 3.342 3.342 0 0 1-.56-.224c-.2-.1-.395-.218-.584-.355a2.934 2.934 0 0 1-.41-.342 7.8 7.8 0 0 1-.325-.382 3.76 3.76 0 0 1-.344-.51 4.85 4.85 0 0 1-.28-.603l-.134-.34-.008-.029-.008-.028L2 10.884l-.004-.02.025.005.024.005.179.028c.119.019.305.025.56.019.254-.006.43-.019.527-.037.097-.02.157-.032.179-.038l.032-.01.04-.008.041-.01.003-.005.005-.004.005-.004.003-.005-.032-.01-.032-.01-.033-.009-.032-.009-.033-.01a2.751 2.751 0 0 1-.113-.037 5.815 5.815 0 0 1-.439-.205 3.236 3.236 0 0 1-.568-.346 4.075 4.075 0 0 1-.402-.368 5.08 5.08 0 0 1-.417-.52 3.856 3.856 0 0 1-.406-.738 4.927 4.927 0 0 1-.268-.804 4.94 4.94 0 0 1-.117-.776l-.03-.392.017.004.016.005.017.01.016.009.016.01.016.009.252.13c.168.088.376.163.625.225s.397.096.446.103l.073.009h.146l-.003-.006-.005-.003-.005-.004-.003-.006-.003-.005-.005-.004-.005-.004-.003-.005-.016-.01-.017-.01-.003-.005-.005-.003-.005-.004-.003-.006-.016-.01-.016-.008-.004-.006-.14-.12a2.291 2.291 0 0 1-.278-.304 10.734 10.734 0 0 1-.293-.393 3.09 3.09 0 0 1-.26-.44 5.73 5.73 0 0 1-.24-.593 4.707 4.707 0 0 1-.262-1.443c-.006-.237 0-.44.016-.608a4.899 4.899 0 0 1 .308-1.243l.138-.355.008-.028.008-.028.005-.004.004-.005.003-.006.005-.004.005.004.003.006.003.005.005.004.005.004.003.005.003.006.005.004.008.018.008.02.005.003.003.005.22.28c.146.188.319.396.519.627.2.23.311.35.333.359.021.01.048.038.08.086.033.046.142.156.325.33a11.48 11.48 0 0 0 1.712 1.29c.363.225.753.427 1.17.608.416.18.708.299.876.355.168.056.454.128.86.215.406.087.712.143.917.168.206.025.346.04.422.043l.114.004-.003-.028-.005-.028-.033-.234a5.049 5.049 0 0 1-.032-.654c0-.28.019-.54.057-.776.037-.237.094-.476.17-.72.076-.242.15-.437.222-.584.074-.146.17-.313.29-.5.118-.186.272-.38.462-.579.19-.2.406-.377.65-.533.242-.155.467-.274.673-.355.205-.08.378-.134.52-.159.14-.025.21-.039.21-.043Z" fill="#fff"/>
</svg>