<svg width="16" height="16" fill="none" xmlns="http://www.w3.org/2000/svg">
  <path fill-rule="evenodd" clip-rule="evenodd" d="M6 2.667A.667.667 0 0 0 5.333 2H4l-.118.003A2 2 0 0 0 2 4v1.333l.004.078a.667.667 0 0 0 1.33-.078V4l.004-.078A.667.667 0 0 1 4 3.333h1.333l.078-.004A.667.667 0 0 0 6 2.667zm-2.671 7.922A.667.667 0 0 0 2 10.667V12l.003.117A2 2 0 0 0 4 14h1.333l.078-.005a.667.667 0 0 0-.078-1.328H4l-.078-.005A.667.667 0 0 1 3.333 12v-1.333l-.004-.078zM12 2a2 2 0 0 1 1.997 1.882L14 4v1.333a.667.667 0 0 1-1.329.078l-.004-.078V4a.667.667 0 0 0-.59-.662L12 3.333h-1.333a.667.667 0 0 1-.078-1.329L10.667 2H12zm1.995 8.589a.667.667 0 0 0-1.328.078V12l-.005.078a.667.667 0 0 1-.662.589h-1.333l-.078.004A.667.667 0 0 0 10.667 14H12l.117-.003A2 2 0 0 0 14 12v-1.333l-.005-.078z" fill="#E50505"/>
</svg>